<?xml version="1.0" encoding="UTF-8"?>
<svg width="27px" height="26px" viewBox="0 0 27 26" version="1.1" xmlns="http://www.w3.org/2000/svg" xmlns:xlink="http://www.w3.org/1999/xlink">
    <!-- Generator: Sketch 48.2 (47327) - http://www.bohemiancoding.com/sketch -->
    <title>icon_flycircle</title>
    <desc>Created with Sketch.</desc>
    <defs></defs>
    <g id="blocks" stroke="none" stroke-width="1" fill="none" fill-rule="evenodd" transform="translate(-444.000000, -1731.000000)" opacity="0.3">
        <g id="junior---func-[]-copy-14" transform="translate(434.000000, 1710.000000)">
            <g id="icon_flycircle" transform="translate(24.000000, 34.000000) scale(-1, 1) rotate(89.000000) translate(-24.000000, -34.000000) translate(4.000000, 14.000000)">
                <path d="M29.1788618,10.81875 C26.8211382,8.4625 23.5853659,7 19.9918699,7 C12.804878,7 7,12.8175 7,20 C7,27.1825 12.804878,33 19.9918699,33 C26.0569106,33 31.1138211,28.85625 32.5609756,23.25 L29.1788618,23.25 C27.8455285,27.03625 24.2357724,29.75 19.9918699,29.75 C14.6097561,29.75 10.2357724,25.37875 10.2357724,20 C10.2357724,14.62125 14.6097561,10.25 19.9918699,10.25 C22.6910569,10.25 25.097561,11.37125 26.8536585,13.1425 L21.6178862,18.375 L33,18.375 L33,7 L29.1788618,10.81875 Z" id="Shape" fill="#000000" fill-rule="nonzero"></path>
                <polygon id="Shape" points="0 0 40 0 40 40 0 40"></polygon>
            </g>
        </g>
    </g>
</svg>