<?xml version="1.0" encoding="UTF-8"?>
<svg width="28px" height="14px" viewBox="0 0 28 14" version="1.1" xmlns="http://www.w3.org/2000/svg" xmlns:xlink="http://www.w3.org/1999/xlink">
    <!-- Generator: Sketch 49 (51002) - http://www.bohemiancoding.com/sketch -->
    <title>ic_battery_full_black_24px</title>
    <desc>Created with Sketch.</desc>
    <defs></defs>
    <g id="Mockup" stroke="none" stroke-width="1" fill="none" fill-rule="evenodd">
        <g id="neutral-starting-page---connected" transform="translate(-123.000000, -740.000000)">
            <g id="ic_battery_full_black_24px" transform="translate(137.500000, 746.500000) rotate(-270.000000) translate(-137.500000, -746.500000) translate(121.000000, 730.000000)">
                <polygon id="Shape" points="0 0 33 0 33 33 0 33"></polygon>
                <path d="M22.138,5.8 L19.8,5.8 L19.8,3 L14.2,3 L14.2,5.8 L11.862,5.8 C10.84,5.8 10,6.64 10,7.662 L10,29.124 C10,30.16 10.84,31 11.862,31 L22.124,31 C23.16,31 24,30.16 24,29.138 L24,7.662 C24,6.64 23.16,5.8 22.138,5.8 Z" id="Shape" fill="#60C644" fill-rule="nonzero"></path>
            </g>
        </g>
    </g>
</svg>