<?xml version="1.0" encoding="UTF-8"?>
<svg width="30px" height="30px" viewBox="0 0 30 30" version="1.1" xmlns="http://www.w3.org/2000/svg" xmlns:xlink="http://www.w3.org/1999/xlink">
    <!-- Generator: Sketch 49 (51002) - http://www.bohemiancoding.com/sketch -->
    <title>icon/comp vis</title>
    <desc>Created with Sketch.</desc>
    <defs></defs>
    <g id="Mockup" stroke="none" stroke-width="1" fill="none" fill-rule="evenodd" opacity="0.200000018">
        <g id="senior-sound" transform="translate(-160.000000, -217.000000)">
            <g id="icon/comp-vis" transform="translate(160.000000, 217.000000)">
                <g id="icon/compvis">
                    <circle id="Oval-Copy-2" fill="#31CE40" cx="15" cy="15" r="15"></circle>
                    <g id="ic_remove_red_eye_black_24px-(1)" transform="translate(5.000000, 5.000000)">
                        <polygon id="Shape" points="0 0 21 0 21 21 0 21"></polygon>
                        <path d="M10.5,4 C6.18181818,4 2.49409091,6.69533333 1,10.5 C2.49409091,14.3046667 6.18181818,17 10.5,17 C14.8181818,17 18.5059091,14.3046667 20,10.5 C18.5059091,6.69533333 14.8181818,4 10.5,4 Z M10.5,14.8333333 C8.11636364,14.8333333 6.18181818,12.892 6.18181818,10.5 C6.18181818,8.108 8.11636364,6.16666667 10.5,6.16666667 C12.8836364,6.16666667 14.8181818,8.108 14.8181818,10.5 C14.8181818,12.892 12.8836364,14.8333333 10.5,14.8333333 Z M10.5,7.9 C9.06636364,7.9 7.90909091,9.06133333 7.90909091,10.5 C7.90909091,11.9386667 9.06636364,13.1 10.5,13.1 C11.9336364,13.1 13.0909091,11.9386667 13.0909091,10.5 C13.0909091,9.06133333 11.9336364,7.9 10.5,7.9 Z" id="Shape" fill="#FFFFFF" fill-rule="nonzero"></path>
                    </g>
                </g>
            </g>
        </g>
    </g>
</svg>