<?xml version="1.0" encoding="UTF-8"?>
<svg width="104px" height="43px" viewBox="0 0 104 43" version="1.1" xmlns="http://www.w3.org/2000/svg" xmlns:xlink="http://www.w3.org/1999/xlink">
    <!-- Generator: Sketch 49 (51002) - http://www.bohemiancoding.com/sketch -->
    <title>drone sideways</title>
    <desc>Created with Sketch.</desc>
    <defs>
        <polygon id="path-1" points="0.0448916031 0.00275452148 7.97050522 0.00275452148 7.97050522 15.3043478 0.0448916031 15.3043478"></polygon>
        <polygon id="path-3" points="0.00962127173 0.00275452148 7.99614154 0.00275452148 7.99614154 15.3043478 0.00962127173 15.3043478"></polygon>
        <polygon id="path-5" points="0.0447916671 0.0479966801 100.952117 0.0479966801 100.952117 15.9454407 0.0447916671 15.9454407"></polygon>
        <polygon id="path-7" points="0 42 104 42 104 0 0 0"></polygon>
    </defs>
    <g id="Mockup" stroke="none" stroke-width="1" fill="none" fill-rule="evenodd">
        <g id="neutral-starting-page---connected" transform="translate(-20.000000, -553.000000)">
            <g id="drone-sideways" transform="translate(72.000000, 574.500000) scale(-1, 1) translate(-72.000000, -574.500000) translate(20.000000, 553.000000)">
                <path d="M27.256987,28 C27.256987,28 22.4636847,26.4098953 20.4591901,24.9965504 C18.4546955,23.5831389 17.6703824,22.434767 16.798843,21.6397147 C15.9273693,20.8446623 15.6658878,20.0496767 16.5373614,19.4312508 C17.4089008,18.8128915 18.9776586,18.9013048 19.8491322,19.4312508 C20.7206716,19.9612634 25.0781713,21.9931009 26.3854476,23.6714854 C27.6927238,25.34987 29,27.1166011 29,27.1166011 L27.256987,28 Z" id="Fill-1" fill="#A9AAAD"></path>
                <path d="M29,27.6940775 C29,27.6940775 31.5175396,30.9042266 33.2258046,31.7717743 C34.9340696,32.6393875 38.4405191,35.2420961 39.969081,34.9817925 C41.4975072,34.7214889 41.4975072,34.3745484 38.8001967,32.2055482 C36.1028861,30.0365479 29.6293679,27 29.6293679,27 L29,27.6940775 Z" id="Fill-3" fill="#A9AAAD"></path>
                <path d="M31,25.5 C31,24.6715422 30.3284578,24 29.5,24 C28.6716132,24 28,24.6715422 28,25.5 C28,26.3283868 28.6716132,27 29.5,27 C30.3284578,27 31,26.3283868 31,25.5" id="Fill-5" fill="#A9AAAD"></path>
                <path d="M74.5819596,10 C74.5819596,10 69.9599963,9.40669639 67.8925702,8.43260652 C65.8251441,7.45843876 64.9091949,6.49985144 63.977907,5.90117257 C63.0466191,5.3025716 62.6671657,4.58314423 63.3444334,3.81074332 C64.0217011,3.03834241 65.4566571,2.81343858 66.3404237,3.15496209 C67.224047,3.4965635 71.5312087,4.60456735 73.0155495,5.97377748 C74.4998187,7.34306551 76,8.79796812 76,8.79796812 L74.5819596,10 Z" id="Fill-7" fill="#A9AAAD"></path>
                <path d="M73,8.6721358 C73,8.6721358 75.8504476,10.9123287 77.5400294,11.3533407 C79.2296844,11.7942877 82.8512403,13.3762421 84.1695586,12.9173715 C85.4878038,12.4585008 85.4230391,12.1727619 82.6060704,10.8185544 C79.7891747,9.46434687 73.4333236,8 73.4333236,8 L73,8.6721358 Z" id="Fill-9" fill="#A9AAAD"></path>
                <path d="M75.9702092,9.20391184 C75.8066724,8.39192651 75.0158111,7.8662777 74.2039105,8.02981475 C73.3919261,8.19326798 72.8662779,8.9840463 73.0298147,9.79603163 C73.1932678,10.608017 73.984129,11.1336658 74.7960296,10.9702125 C75.6080979,10.8066755 76.1336623,10.0158972 75.9702092,9.20391184" id="Fill-11" fill="#A9AAAD"></path>
                <path d="M77.7430066,28 C77.7430066,28 82.5362911,26.4098953 84.540844,24.9965504 C86.5453311,23.5831389 87.3296413,22.434767 88.2011117,21.6397147 C89.0726479,20.8446623 89.3341285,20.0496767 88.4625923,19.4312508 C87.5911219,18.8128915 86.02237,18.9013048 85.1508338,19.4312508 C84.2793634,19.9612634 79.9218141,21.9931009 78.6145427,23.6714854 C77.3072714,25.34987 76,27.1166011 76,27.1166011 L77.7430066,28 Z" id="Fill-13" fill="#A9AAAD"></path>
                <path d="M77,27.6940775 C77,27.6940775 74.4824473,30.9042266 72.7741734,31.7717743 C71.0658995,32.6393875 67.5594318,35.2420961 66.0309298,34.9817925 C64.5024956,34.7214889 64.5024956,34.3745484 67.1997523,32.2055482 C69.8970769,30.0365479 76.3706288,27 76.3706288,27 L77,27.6940775 Z" id="Fill-15" fill="#A9AAAD"></path>
                <path d="M76,25.5 C76,24.6715422 76.6715422,24 77.5,24 C78.3283868,24 79,24.6715422 79,25.5 C79,26.3283868 78.3283868,27 77.5,27 C76.6715422,27 76,26.3283868 76,25.5" id="Fill-17" fill="#A9AAAD"></path>
                <path d="M32.3520236,10 C32.3520236,10 36.938077,9.60181685 39.0174564,8.66838274 C41.0969031,7.73494863 42.0391839,6.75969187 42.9822716,6.16888782 C43.9253594,5.57808376 44.3284447,4.83056315 43.6905289,3.97312 C43.0527477,3.11559794 41.6451098,2.80319067 40.7593175,3.12246317 C39.8734579,3.44173567 35.5777146,4.40444563 34.0581087,5.78845956 C32.5385699,7.17255241 31,8.64715577 31,8.64715577 L32.3520236,10 Z" id="Fill-19" fill="#A9AAAD"></path>
                <path d="M31,8.74757946 C31,8.74757946 28.083643,11.0580239 26.3979128,11.4652648 C24.712251,11.8725058 21.0682077,13.4361744 19.7919336,12.8828062 C18.5155911,12.3293711 18.5932666,12.0221154 21.4336591,10.6715435 C24.2741199,9.3209715 30.6057368,8 30.6057368,8 L31,8.74757946 Z" id="Fill-21" fill="#A9AAAD"></path>
                <path d="M31.0442018,9.14000014 C31.24302,8.33597928 32.055962,7.84538489 32.8599899,8.04420137 C33.6640178,8.24301785 34.1546165,9.05603241 33.9557982,9.86005326 C33.75698,10.6639945 32.9439584,11.1546685 32.1400101,10.9557724 C31.3359822,10.756956 30.8453835,9.94402099 31.0442018,9.14000014" id="Fill-23" fill="#A9AAAD"></path>
                <g id="Group-27" transform="translate(24.000000, 27.000000)">
                    <mask id="mask-2" fill="white">
                        <use xlink:href="#path-1"></use>
                    </mask>
                    <g id="Clip-26"></g>
                    <path d="M0.0448916031,6.70472701 C0.0448916031,10.4744106 0.845868702,12.5948891 1.04617405,13.4195276 C1.24641832,14.2441661 2.54797557,15.3044053 4.35023511,15.3044053 C6.15249466,15.3044053 7.2538687,14.1263298 7.45411298,12.5948891 C7.65429618,11.0634484 8.0548458,8.58953288 7.95469313,6.58689071 C7.85460153,4.58424854 6.95347176,2.22816934 6.4528916,0.932401225 C5.95218931,-0.363438743 1.79707481,-0.304592447 1.19628092,1.10908381 C0.59560916,2.52276007 0.0448916031,6.70472701 0.0448916031,6.70472701" id="Fill-25" fill="#A9AAAD" mask="url(#mask-2)"></path>
                </g>
                <g id="Group-30" transform="translate(73.000000, 27.000000)">
                    <mask id="mask-4" fill="white">
                        <use xlink:href="#path-3"></use>
                    </mask>
                    <g id="Clip-29"></g>
                    <path d="M7.99614154,6.70472701 C7.99614154,10.4744106 7.18900308,12.5948891 6.98721846,13.4195276 C6.78543385,14.2441661 5.47380308,15.3044053 3.65768,15.3044053 C1.84155692,15.3044053 0.731772308,14.1263298 0.529987692,12.5948891 C0.328203077,11.0634484 -0.0753661538,8.58953288 0.0255569231,6.58689071 C0.126356923,4.58424854 1.03441846,2.22816934 1.53891077,0.932401225 C2.04340308,-0.363438743 6.23054154,-0.304592447 6.83589538,1.10908381 C7.44124923,2.52276007 7.99614154,6.70472701 7.99614154,6.70472701" id="Fill-28" fill="#A9AAAD" mask="url(#mask-4)"></path>
                </g>
                <path d="M28,13.2558849 C28,16.2121992 28.808492,17.8751724 29.0106335,18.5218766 C29.212775,19.1685809 30.5265838,20 32.3457832,20 C34.1649088,20 35.2765762,19.076156 35.4787176,17.8751724 C35.6808591,16.6741212 36.0851421,14.7340758 35.9840344,13.1635276 C35.8829267,11.5929793 34.9734009,9.74522382 34.4680841,8.72902245 C33.9627673,7.71282108 29.7686087,7.75899978 29.1621842,8.86755854 C28.5558337,9.97618482 28,13.2558849 28,13.2558849" id="Fill-31" fill="#A9AAAD"></path>
                <path d="M79,13.2558849 C79,16.2121992 78.191508,17.8751724 77.9893665,18.5218766 C77.787225,19.1685809 76.4734162,20 74.6542168,20 C72.8350913,20 71.7234239,19.076156 71.5212086,17.8751724 C71.319141,16.6741212 70.914858,14.7340758 71.0159657,13.1635276 C71.1169995,11.5929793 72.0265992,9.74522382 72.531916,8.72902245 C73.0372327,7.71282108 77.2313914,7.75899978 77.8378158,8.86755854 C78.4441663,9.97618482 79,13.2558849 79,13.2558849" id="Fill-33" fill="#A9AAAD"></path>
                <path d="M58.8236878,13.3339633 C52.1068189,12.6291944 46.8877424,12.9450535 42.326304,15.2005521 C37.7648657,17.4560508 36.9286383,19.1670905 37.0045532,20.8782046 C37.0806136,22.5892443 37.4820754,26.6304701 37.9929012,28.4223715 C38.5251054,30.2889603 43.3907123,32 46.7357671,32 C50.0808946,32 62.3208632,31.6889763 64.2974138,30.3666976 C66.2741098,29.0445678 72.4320879,17.4560508 71.975944,16.2116583 C71.5198729,14.9672657 71.2917647,12.8673161 70.1513687,13.1006026 C69.0110455,13.3339633 64.7536303,13.9561596 58.8236878,13.3339633" id="Fill-35" fill="#A9AAAD"></path>
                <polygon id="Fill-37" fill="#A9AAAD" points="30.1153312 35 44 28.9746762 41.8846688 24 28 30.0251783"></polygon>
                <polygon id="Fill-39" fill="#A9AAAD" points="77 29.7189669 62.9393546 24 61 29.2808807 75.0605733 35"></polygon>
                <polygon id="Fill-41" fill="#A9AAAD" points="43 17.1592298 32.4545517 13 31 16.8407002 41.54538 21"></polygon>
                <polygon id="Fill-43" fill="#A9AAAD" points="64.4922339 21 74 16.5595482 72.5076225 13 63 17.4403763"></polygon>
                <g id="Group-47" transform="translate(3.000000, 24.000000)">
                    <mask id="mask-6" fill="white">
                        <use xlink:href="#path-5"></use>
                    </mask>
                    <g id="Clip-46"></g>
                    <path d="M22.4485936,15.9454407 C18.0618991,15.9454407 13.7900947,15.1625267 9.90679475,13.630581 C5.63143055,11.9439928 2.62292882,9.66859005 1.23293988,8.10145882 C-1.31034762,5.2342733 0.800601244,1.7705267 2.2721859,0.339576471 C2.69112301,-0.0676633484 3.3493331,-0.0456542986 3.74202557,0.388879638 C4.13422944,0.822689593 4.11370836,1.50381176 3.69665584,1.91141357 C3.68283552,1.92516923 2.92404423,2.68020995 2.46336697,3.69646335 C1.76264893,5.2423095 2.29898894,6.11724163 2.76357498,6.64089774 C4.91312301,9.06428235 13.3514043,15.0323548 26.4061603,13.5654226 C32.8851672,12.8373864 36.1797775,11.3839928 39.0865114,10.101676 C42.0625563,8.78887964 44.6328563,7.65505158 49.5057747,7.65505158 C53.7405853,7.65505158 57.0305888,8.75087059 60.8400408,10.0197213 C65.6612377,11.6255131 71.1255681,13.4456036 80.1557498,13.4456036 C86.959604,13.4456036 91.9617215,12.3613683 95.0230615,10.223305 C97.3874527,8.57190226 98.1351458,6.65986606 98.6504064,4.99738643 C99.3304637,2.8025629 98.2412412,2.23105158 98.2301431,2.22598371 C97.7051804,1.98439095 97.4683504,1.34699729 97.7013414,0.802635294 C97.9342626,0.257838914 98.5489178,0.0125538462 99.0735314,0.254146606 C100.051703,0.704246154 101.635804,2.41291584 100.630341,5.65751312 C100.213079,7.00382986 99.344982,9.80542262 96.1845964,12.0126986 C92.7739095,14.3948887 87.3810539,15.6028525 80.1557498,15.6028525 C70.7998134,15.6028525 65.1706164,13.7278842 60.2041666,12.0736579 C56.5611866,10.8602643 53.4149005,9.81230045 49.5057747,9.81230045 C45.0567491,9.81230045 42.7813525,10.816029 39.9004444,12.0869792 C36.8607422,13.4278661 33.4155045,14.9476489 26.630217,15.7100018 C25.2308051,15.8673955 23.8337664,15.9454407 22.4485936,15.9454407" id="Fill-45" fill="#A9AAAD" mask="url(#mask-6)"></path>
                </g>
                <path d="M13.5559522,11 C13.3811545,11 13.2046666,10.9457627 13.0505038,10.8327067 C12.847254,10.6836649 11.062022,9.3242588 11.0015259,7.53804784 C10.9808911,6.92525475 11.1599143,6.02147176 12.1309498,5.19601515 C13.354956,4.15530878 16.0000207,2.64545695 19.7529589,1.52901044 C24.2283988,0.197683642 29.2937985,-0.277225463 34.4008199,0.155343061 C40.3549269,0.659957077 43.3802223,1.66637718 46.0495841,2.55434711 C48.6157011,3.40795688 50.6426356,4.08230269 54.6198106,4.08230269 C58.1097072,4.08230269 60.9032302,3.38069043 64.1378321,2.56816507 C68.5048158,1.47122626 73.4546461,0.227979695 81.6731646,0.227979695 C88.0035584,0.227979695 92.7244334,1.02395307 95.7048673,2.59373198 C98.5180392,4.07543065 99.3046287,5.98969785 99.6827466,6.90958947 C100.0684,7.84832376 100.102698,8.70141628 99.7843011,9.44514744 C99.3401235,10.4827503 98.3838774,10.840096 98.2763367,10.8774118 L97.7213084,9.11713725 L97.7074344,9.12216196 C97.7108149,9.12075799 98.0502688,8.98538636 98.1768246,8.67481487 C98.3030282,8.36476063 98.1829517,7.94290656 98.0599876,7.64371457 C97.3760795,5.97942675 95.7745188,2.08209815 81.6731646,2.08209815 C73.6631779,2.08209815 68.8212404,3.29829995 64.5491207,4.37137137 C61.2057809,5.21116318 58.3183094,5.93642113 54.6198106,5.93642113 C50.3691709,5.93642113 48.1198307,5.18818252 45.5154723,4.32178929 C42.9360447,3.46367206 40.0123742,2.49102097 34.2585591,2.00355009 C22.6461349,1.01937172 15.1514562,5.01423884 13.243401,6.63655553 C12.753376,7.05308932 12.7641512,7.36853773 12.767602,7.47220935 C12.791054,8.1625899 13.6503232,9.01050992 14.0628795,9.31302709 C14.4628295,9.60630766 14.5604401,10.1842972 14.2809892,10.6040084 C14.109079,10.8618943 13.8347692,11 13.5559522,11" id="Fill-48" fill="#A9AAAD"></path>
                <mask id="mask-8" fill="white">
                    <use xlink:href="#path-7"></use>
                </mask>
                <g id="Clip-51"></g>
                <polygon id="Fill-50" fill="#A9AAAD" mask="url(#mask-8)" points="4 20 11 20 11 17 4 17"></polygon>
                <polygon id="Fill-52" fill="#A9AAAD" mask="url(#mask-8)" points="5 15 0 18.5 5 22"></polygon>
            </g>
        </g>
    </g>
</svg>