<?xml version="1.0" encoding="UTF-8"?>
<svg width="30px" height="30px" viewBox="0 0 30 30" version="1.1" xmlns="http://www.w3.org/2000/svg" xmlns:xlink="http://www.w3.org/1999/xlink">
    <!-- Generator: Sketch 49 (51002) - http://www.bohemiancoding.com/sketch -->
    <title>flight commands icon</title>
    <desc>Created with Sketch.</desc>
    <defs>
        <polygon id="path-1" points="0 0 22 0 22 13 0 13"></polygon>
    </defs>
    <g id="Mockup" stroke="none" stroke-width="1" fill="none" fill-rule="evenodd">
        <g id="neutral-starting-page---disconnected-junior" transform="translate(-160.000000, -137.000000)">
            <g id="icon/flight-commands" transform="translate(160.000000, 137.000000)">
                <g id="flight-commands-icon">
                    <circle id="Oval-Copy" fill="#3354DA" cx="15" cy="15" r="15"></circle>
                    <g id="Page-1" transform="translate(4.000000, 6.000000)">
                        <mask id="mask-2" fill="white">
                            <use xlink:href="#path-1"></use>
                        </mask>
                        <g id="Clip-2"></g>
                        <path d="M21.4152534,5.45530524 C21.082045,5.53193972 20.3416182,6.03015443 19.8418055,6.4325647 C19.5224808,6.6896501 19.0822696,7.28308078 18.8059733,7.67811278 C18.7357459,7.63205513 18.6527062,7.60498637 18.5634133,7.60498637 C18.316393,7.60498637 18.1158558,7.80924692 18.1097557,8.06343533 C17.9721651,8.03711344 17.8406527,8.03222477 17.746025,8.07257896 C17.6163711,8.12784813 17.3264753,8.40102541 17.0187604,8.72191253 L14.1458433,7.18822693 C14.1307352,6.63426776 14.0152055,6.14295605 13.9612012,5.88304156 L16.5542363,4.73479167 C16.5895687,5.03431347 16.6380851,5.31830921 16.6701378,5.53397667 C16.7324067,5.95297675 17.0749073,6.27528973 17.6353928,6.27528973 C18.1958783,6.27528973 18.6006915,5.98522842 18.6629386,5.75957991 C18.7252293,5.53397667 18.9743267,4.95378615 18.9743267,3.92234388 C18.9743267,3.92234388 18.9605523,3.83034176 18.9365674,3.68974712 C19.4387851,4.03274643 20.0787902,4.3451689 20.2490457,4.4509091 C20.4958474,4.60422334 20.9401253,4.62975309 21.1869488,4.4509091 C21.4337723,4.27206512 21.3597187,4.04213902 21.1128952,3.81219029 C20.8660935,3.58224157 20.6439546,3.25010597 20.0762758,2.84131326 C19.6225526,2.5145869 18.6643816,2.15524674 18.2979397,2.02413523 C18.298705,2.01558005 18.2992079,2.00695697 18.2992079,1.99817547 C18.2992079,1.84298271 18.1776655,1.71714462 18.0276998,1.71714462 C17.936308,1.71714462 17.8556077,1.76406231 17.8064136,1.83574023 C17.562651,1.53649002 17.1844245,1.1097948 16.8923642,0.950663945 C16.4234236,0.695185475 15.460836,-0.071295201 15.0412645,0.0053619197 C14.6216492,0.0819964077 14.6216492,0.184205902 15.3620979,0.82292471 C15.8633098,1.25527811 16.8393657,1.8046202 17.4178453,2.11453043 C17.2034899,2.15135391 17.0322068,2.22746785 16.981504,2.34294013 C16.8557419,2.6293802 16.6487329,3.10512058 16.5573848,3.56626284 L13.6577498,4.85028659 C13.3333526,4.03964942 12.7918233,3.00992724 12.4008062,3.00992724 L11.7941001,3.00992724 L11.3023115,1.99790387 L11.2401301,1.99790387 L10.5976107,1.99790387 L10.5354511,1.99790387 L10.0436626,3.00992724 L9.4576836,3.00992724 C9.07514981,3.00992724 8.54861925,3.99535713 8.22218866,4.79709963 L5.4426093,3.56626284 C5.35126121,3.10512058 5.14427405,2.6293802 5.01851191,2.34294013 C4.96780913,2.22746785 4.796526,2.15135391 4.58217065,2.11453043 C5.1606721,1.8046202 6.1367061,1.25527811 6.63789621,0.82292471 C7.37834484,0.184205902 7.37834484,0.0819964077 6.95875145,0.0053619197 C6.53917992,-0.071295201 5.57659233,0.695185475 5.10765173,0.950663945 C4.8155696,1.1097948 4.4373649,1.53649002 4.19360237,1.83574023 C4.14440821,1.76406231 4.06372979,1.71714462 3.97229424,1.71714462 C3.82237231,1.71714462 3.70080807,1.84298271 3.70080807,1.99817547 C3.70080807,2.00695697 3.70131095,2.01558005 3.70207619,2.02413523 C3.33563436,2.15524674 2.3774633,2.5145869 1.9237401,2.84131326 C1.35606136,3.25010597 1.13394426,3.58224157 0.887120759,3.81219029 C0.64029726,4.04213902 0.566265515,4.27206512 0.81306715,4.4509091 C1.05989065,4.62975309 1.50414671,4.60422334 1.75097021,4.4509091 C1.92122573,4.3451689 2.56123082,4.03274643 3.06344854,3.68974712 C3.03946365,3.83034176 3.02568928,3.92234388 3.02568928,3.92234388 C3.02568928,4.95378615 3.27478665,5.53397667 3.33705552,5.75957991 C3.39934626,5.98522842 3.80413767,6.27528973 4.36460127,6.27528973 C4.92508674,6.27528973 5.26760928,5.95297675 5.32987815,5.53397667 C5.36193088,5.31830921 5.41044725,5.03431347 5.44577959,4.73479167 L7.90889839,5.82553174 C7.86033829,6.07532939 7.71745658,6.63515044 7.71120346,7.26456719 L4.98123367,8.72191253 C4.67351873,8.40102541 4.38364488,8.12784813 4.25399094,8.07257896 C4.15936324,8.03222477 4.02785085,8.03711344 3.89026025,8.06343533 C3.88416017,7.80924692 3.68362291,7.60498637 3.43658077,7.60498637 C3.34728791,7.60498637 3.26427003,7.63205513 3.19402077,7.67811278 C2.91774637,7.28308078 2.47753516,6.6896501 2.1582104,6.4325647 C1.6584196,6.03015443 0.917970963,5.53193972 0.584762519,5.45530524 C0.251575939,5.37864812 -0.0631136365,5.78105839 0.0109181084,5.97266724 C0.0849717173,6.16429873 1.21414167,7.5056286 1.84352082,7.83135912 C2.13752699,7.98354172 2.50423119,8.18171407 2.81157444,8.34969434 C2.54448294,8.39984851 2.32144755,8.50027002 2.2485746,8.65109465 C2.03940104,9.08419494 1.84763127,10.3653896 1.84763127,10.3653896 C1.84763127,11.5202935 2.12655122,12.1699213 2.19627575,12.422548 C2.26600027,12.6751748 2.71924246,13 3.34682876,13 C3.97437133,13 4.357889,12.6390982 4.42761353,12.1699213 C4.49672586,11.7049767 4.63418527,10.956557 4.60274474,10.3460386 C4.69168778,10.3944274 4.78025913,10.436547 4.86487308,10.4678254 C5.38318276,10.6594343 5.54976511,10.7169214 5.7163912,10.5444599 C5.88297356,10.3719984 6.16064726,10.1612422 5.99404304,9.89295359 C5.96432977,9.84510796 5.89976516,9.76059727 5.8121121,9.65340858 L7.93771523,8.51869307 C8.28349552,9.30819126 9.09904724,9.9544694 10.8670635,9.9544694 C10.8884465,9.9544694 10.9082773,9.95317934 10.9292449,9.95286248 C10.9501907,9.95317934 10.9700433,9.9544694 10.9914263,9.9544694 C12.8053134,9.9544694 13.6165579,9.27419687 13.9466398,8.45695093 L16.187882,9.65340858 C16.1002508,9.76059727 16.0356862,9.84510796 16.0059729,9.89295359 C15.8393687,10.1612422 16.1170424,10.3719984 16.2836247,10.5444599 C16.450229,10.7169214 16.6168332,10.6594343 17.1351429,10.4678254 C17.2197568,10.436547 17.3083063,10.3944274 17.3972712,10.3460386 C17.3658088,10.956557 17.5032901,11.7049767 17.5723805,12.1699213 C17.6421269,12.6390982 18.0256446,13 18.6531872,13 C19.2807516,13 19.7339938,12.6751748 19.8037402,12.422548 C19.8734429,12.1699213 20.1523628,11.5202935 20.1523628,10.3653896 C20.1523628,10.3653896 19.9606368,9.08419494 19.7514195,8.65109465 C19.6785684,8.50027002 19.455533,8.39984851 19.1884415,8.34969434 C19.4957848,8.18171407 19.8624671,7.98354172 20.1564951,7.83135912 C20.7858743,7.5056286 21.9150442,6.16429873 21.989076,5.97266724 C22.0631296,5.78105839 21.74844,5.37864812 21.4152534,5.45530524" id="Fill-1" fill="#FFFFFF" mask="url(#mask-2)"></path>
                    </g>
                    <g id="Group" transform="translate(12.000000, 17.000000)" fill="#FFFFFF">
                        <g id="icon_hover">
                            <polygon id="Fill-2" points="1.57142857 7.53846154 4.42857143 7.53846154 4.42857143 1.69230769 1.57142857 1.69230769"></polygon>
                            <polygon id="Fill-3" points="2.99911808 0.230769231 0.142857143 3.15384615 5.85714286 3.15384615 3.00029397 0.230769231"></polygon>
                            <polygon id="Fill-4" points="5.85714286 6.07692308 0.142857143 6.07692308 3.00029397 9"></polygon>
                        </g>
                    </g>
                </g>
            </g>
        </g>
    </g>
</svg>