<?xml version="1.0" encoding="UTF-8"?>
<svg width="30px" height="30px" viewBox="0 0 30 30" version="1.1" xmlns="http://www.w3.org/2000/svg" xmlns:xlink="http://www.w3.org/1999/xlink">
    <!-- Generator: Sketch 49 (51002) - http://www.bohemiancoding.com/sketch -->
    <title>flight seq icon</title>
    <desc>Created with Sketch.</desc>
    <defs></defs>
    <g id="Mockup" stroke="none" stroke-width="1" fill="none" fill-rule="evenodd">
        <g id="neutral-starting-page---disconnected-junior" transform="translate(-160.000000, -177.000000)">
            <g id="icon/flight-seq" transform="translate(160.000000, 177.000000)">
                <g id="flight-seq-icon">
                    <circle id="Oval" fill="#3399E4" cx="15" cy="15" r="15"></circle>
                    <g id="Page-1" transform="translate(9.000000, 5.000000)" fill="#FFFFFF">
                        <path d="M4.61800279,20 C4.26009055,20 3.9055055,19.8420298 3.66397755,19.5382938 C3.24155826,19.00679 3.32575693,18.2299662 3.85220231,17.8033645 L7.93868966,14.4913388 L0.366716919,6.99714896 C0.0987071223,6.73187701 -0.0337699775,6.35710923 0.00737872701,5.98049025 C0.0484595293,5.60387126 0.258684594,5.26722476 0.577417298,5.06736233 L6.76724173,1.18591733 C7.34081121,0.82630208 8.0943214,1.00415565 8.45033238,1.58324248 C8.80654708,2.16226074 8.63034099,2.92317782 8.05690731,3.28272451 L3.18961311,6.33482612 L10.6333187,13.7021051 C10.882927,13.9490706 11.0158115,14.2920935 10.9984965,14.6445096 C10.9812493,14.9969257 10.8153644,15.3250017 10.5428051,15.5459131 L5.38224152,19.7282831 C5.15667057,19.9110732 4.88642,20 4.61800279,20" id="Fill-1"></path>
                        <polygon id="Fill-3" points="4 0.254494518 12 0 8.22323179 7"></polygon>
                    </g>
                </g>
            </g>
        </g>
    </g>
</svg>