<?xml version="1.0" encoding="UTF-8"?>
<svg width="32px" height="21px" viewBox="0 0 32 21" version="1.1" xmlns="http://www.w3.org/2000/svg" xmlns:xlink="http://www.w3.org/1999/xlink">
    <!-- Generator: Sketch 49 (51002) - http://www.bohemiancoding.com/sketch -->
    <title>graduation-cap</title>
    <desc>Created with Sketch.</desc>
    <defs></defs>
    <g id="Mockup" stroke="none" stroke-width="1" fill="none" fill-rule="evenodd" opacity="0.400000006">
        <g id="neutral-starting-page---disconnected-senior" transform="translate(-1316.000000, -21.000000)" fill="#000000" fill-rule="nonzero">
            <g id="tuts-tab" transform="translate(1295.000000, 10.000000)">
                <g id="graduation-cap" transform="translate(21.000000, 11.000000)">
                    <path d="M24.6388889,9.6796875 L24.8888889,14 C24.9259259,14.6289063 24.5462963,15.2122396 23.75,15.75 C22.9537037,16.2877604 21.8657407,16.7138672 20.4861111,17.0283203 C19.1064815,17.3427734 17.6111111,17.5 16,17.5 C14.3888889,17.5 12.8935185,17.3427734 11.5138889,17.0283203 C10.1342593,16.7138672 9.0462963,16.2877604 8.25,15.75 C7.4537037,15.2122396 7.07407407,14.6289063 7.11111111,14 L7.36111111,9.6796875 L15.3333333,12.1542969 C15.537037,12.218099 15.7592593,12.25 16,12.25 C16.2407407,12.25 16.462963,12.218099 16.6666667,12.1542969 L24.6388889,9.6796875 Z M32,5.25 C32,5.45963542 31.8981481,5.60091146 31.6944444,5.67382812 L16.1388889,10.4863281 C16.1018519,10.4954427 16.0555556,10.5 16,10.5 C15.9444444,10.5 15.8981481,10.4954427 15.8611111,10.4863281 L6.80555556,7.66992188 C6.40740741,7.97981771 6.0787037,8.48795573 5.81944444,9.19433594 C5.56018519,9.90071615 5.40277778,10.7141927 5.34722222,11.6347656 C5.93055556,11.9628906 6.22222222,12.4596354 6.22222222,13.125 C6.22222222,13.7539062 5.9537037,14.2415365 5.41666667,14.5878906 L6.22222222,20.5078125 C6.24074074,20.6354167 6.2037037,20.749349 6.11111111,20.8496094 C6.02777778,20.9498698 5.91666667,21 5.77777778,21 L3.11111111,21 C2.97222222,21 2.86111111,20.9498698 2.77777778,20.8496094 C2.68518519,20.749349 2.64814815,20.6354167 2.66666667,20.5078125 L3.47222222,14.5878906 C2.93518519,14.2415365 2.66666667,13.7539062 2.66666667,13.125 C2.66666667,12.4596354 2.96759259,11.953776 3.56944444,11.6074219 C3.6712963,9.72070312 4.125,8.21679688 4.93055556,7.09570312 L0.305555556,5.67382812 C0.101851852,5.60091146 0,5.45963542 0,5.25 C0,5.04036458 0.101851852,4.89908854 0.305555556,4.82617188 L15.8611111,0.013671875 C15.8981481,0.00455729167 15.9444444,0 16,0 C16.0555556,0 16.1018519,0.00455729167 16.1388889,0.013671875 L31.6944444,4.82617188 C31.8981481,4.89908854 32,5.04036458 32,5.25 Z" id="Shape"></path>
                </g>
            </g>
        </g>
    </g>
</svg>