<?xml version="1.0" encoding="UTF-8"?>
<svg width="28px" height="28px" viewBox="0 0 28 28" version="1.1" xmlns="http://www.w3.org/2000/svg" xmlns:xlink="http://www.w3.org/1999/xlink">
    <!-- Generator: Sketch 48.2 (47327) - http://www.bohemiancoding.com/sketch -->
    <title>icon_getgyro</title>
    <desc>Created with Sketch.</desc>
    <defs>
        <polygon id="path-1" points="0 0.616391138 27.7145833 0.616391138 27.7145833 18.9240237 0 18.9240237"></polygon>
    </defs>
    <g id="blocks" stroke="none" stroke-width="1" fill="none" fill-rule="evenodd" transform="translate(-749.000000, -1982.000000)" opacity="0.3">
        <g id="junior---func-[]-copy-48" transform="translate(729.000000, 1965.000000)">
            <g id="icon_getgyro" transform="translate(20.000000, 17.000000)">
                <g id="Group-3" transform="translate(0.000000, 6.000000)">
                    <mask id="mask-2" fill="white">
                        <use xlink:href="#path-1"></use>
                    </mask>
                    <g id="Clip-2"></g>
                    <path d="M19.6575,4.87423625 C17.5616667,4.87423625 15.045,5.38509875 12.6033333,6.31918625 C9.81583333,7.38366125 7.30541667,8.92907375 5.71791667,10.5599862 C4.42416667,11.8852362 4.01791667,12.9967362 4.19083333,13.4669862 C4.35958333,13.9350987 5.37416667,14.5036737 7.19708333,14.6383362 C9.445,14.8071987 12.3220833,14.2899237 15.1116667,13.2233112 C17.8991667,12.1588362 20.4095833,10.6134237 21.9991667,8.98037375 C23.28875,7.65726125 23.6929167,6.54789875 23.5220833,6.07764875 L23.5220833,6.07551125 C23.3533333,5.60739875 22.3408333,5.03882375 20.5179167,4.90416125 C20.2408333,4.88492375 19.9533333,4.87423625 19.6575,4.87423625 M8.06583333,18.9240237 C7.66583333,18.9240237 7.27625,18.9090612 6.89708333,18.8834112 C3.47,18.6290487 1.13041667,17.2311237 0.303333333,14.9504112 C-0.525833333,12.6696987 0.355416667,10.0427112 2.78041667,7.55252375 C4.8075,5.47273625 7.7825,3.61952375 11.1575,2.33061125 C14.5304167,1.04169875 17.9533333,0.44961125 20.82,0.65694875 C24.2408333,0.91131125 26.5825,2.30923625 27.4116667,4.58994875 C28.2408333,6.87279875 27.3595833,9.49978625 24.9325,11.9899737 C22.9075,14.0676237 19.9345833,15.9229737 16.5595833,17.2118862 C13.6325,18.3319362 10.6658333,18.9240237 8.06583333,18.9240237" id="Fill-1" fill="#000000" mask="url(#mask-2)"></path>
                </g>
                <path d="M14.3514255,18 C13.3614466,18 12.4117452,17.4184254 11.9580932,16.425547 L6.25988497,3.95375608 C5.62816397,2.57610968 6.18780942,0.926472087 7.50848789,0.269712886 C8.82916637,-0.387046315 10.4148285,0.196739641 11.0401899,1.57438605 L16.740518,14.0461769 C17.372239,15.4238233 16.8104737,17.0734609 15.4897952,17.7302201 C15.120938,17.9137589 14.7351218,18 14.3514255,18" id="Fill-4" fill="#000000"></path>
                <path d="M18.4415423,28 C17.4652039,28 16.5338958,27.4579188 16.1061081,26.5405505 L14.2271172,22.503733 C13.6458172,21.2567476 14.2189299,19.7833985 15.5063866,19.2194752 C16.797937,18.6575375 18.3125919,19.2115326 18.8938919,20.4605037 L20.7728828,24.4953355 C21.3541828,25.7443066 20.7810701,27.21567 19.4936134,27.781579 C19.1517926,27.9305024 18.7935972,28 18.4415423,28" id="Fill-6" fill="#000000"></path>
            </g>
        </g>
    </g>
</svg>