<?xml version="1.0" encoding="UTF-8"?>
<svg width="36px" height="26px" viewBox="0 0 36 26" version="1.1" xmlns="http://www.w3.org/2000/svg" xmlns:xlink="http://www.w3.org/1999/xlink">
    <!-- Generator: Sketch 48.2 (47327) - http://www.bohemiancoding.com/sketch -->
    <title>icon_hop</title>
    <desc>Created with Sketch.</desc>
    <defs>
        <polygon id="path-1" points="0 0.2921 32.8229 0.2921 32.8229 22.3031 0 22.3031"></polygon>
        <polygon id="path-3" points="0.9454 0.3001 10.4834 0.3001 10.4834 6 0.9454 6"></polygon>
    </defs>
    <g id="blocks" stroke="none" stroke-width="1" fill="none" fill-rule="evenodd" transform="translate(-443.000000, -1818.000000)" opacity="0.3">
        <g id="junior---func-[]-copy-18" transform="translate(434.000000, 1798.000000)">
            <g id="icon_hop" transform="translate(9.000000, 19.000000)">
                <g id="Group-3" transform="translate(0.000000, 0.708200)">
                    <mask id="mask-2" fill="white">
                        <use xlink:href="#path-1"></use>
                    </mask>
                    <g id="Clip-2"></g>
                    <path d="M28.9189,22.3031 C27.7069,16.8881 24.0849,4.2921 16.6459,4.2921 C6.6579,4.2921 3.9839,21.9011 3.9589,22.0781 L-0.0001,21.5041 C0.1259,20.6381 3.2359,0.2921 16.6459,0.2921 C26.6049,0.2921 31.0559,13.5351 32.8229,21.4301 L28.9189,22.3031 Z" id="Fill-1" fill="#231F20" mask="url(#mask-2)"></path>
                </g>
                <g id="Group-6" transform="translate(25.000000, 20.708200)">
                    <mask id="mask-4" fill="white">
                        <use xlink:href="#path-3"></use>
                    </mask>
                    <g id="Clip-5"></g>
                    <polygon id="Fill-4" fill="#231F20" mask="url(#mask-4)" points="10.4834 0.3001 0.9454 2.1631 6.6454 6.0001"></polygon>
                </g>
            </g>
        </g>
    </g>
</svg>