<?xml version="1.0" encoding="UTF-8"?>
<svg width="32px" height="22px" viewBox="0 0 32 22" version="1.1" xmlns="http://www.w3.org/2000/svg" xmlns:xlink="http://www.w3.org/1999/xlink">
    <!-- Generator: Sketch 48.2 (47327) - http://www.bohemiancoding.com/sketch -->
    <title>icon_eye</title>
    <desc>Created with Sketch.</desc>
    <defs></defs>
    <g id="blocks" stroke="none" stroke-width="1" fill="none" fill-rule="evenodd" transform="translate(-514.000000, -2325.000000)" opacity="0.3">
        <g id="junior---func-[]-copy-25" transform="translate(507.000000, 2304.000000)">
            <g id="icon_eye" transform="translate(6.000000, 14.000000)">
                <polygon id="Shape" points="0 0 35 0 35 35 0 35"></polygon>
                <path d="M17,7 C9.72727273,7 3.51636364,11.5613333 1,18 C3.51636364,24.4386667 9.72727273,29 17,29 C24.2727273,29 30.4836364,24.4386667 33,18 C30.4836364,11.5613333 24.2727273,7 17,7 Z M17,25.3333333 C12.9854545,25.3333333 9.72727273,22.048 9.72727273,18 C9.72727273,13.952 12.9854545,10.6666667 17,10.6666667 C21.0145455,10.6666667 24.2727273,13.952 24.2727273,18 C24.2727273,22.048 21.0145455,25.3333333 17,25.3333333 Z M17,13.6 C14.5854545,13.6 12.6363636,15.5653333 12.6363636,18 C12.6363636,20.4346667 14.5854545,22.4 17,22.4 C19.4145455,22.4 21.3636364,20.4346667 21.3636364,18 C21.3636364,15.5653333 19.4145455,13.6 17,13.6 Z" id="Shape" fill="#000000" fill-rule="nonzero"></path>
            </g>
        </g>
    </g>
</svg>