<?xml version="1.0" encoding="UTF-8"?>
<svg width="31px" height="37px" viewBox="0 0 31 37" version="1.1" xmlns="http://www.w3.org/2000/svg" xmlns:xlink="http://www.w3.org/1999/xlink">
    <!-- Generator: Sketch 48.2 (47327) - http://www.bohemiancoding.com/sketch -->
    <title>icon_hover</title>
    <desc>Created with Sketch.</desc>
    <defs>
        <polygon id="path-1" points="0.0451668016 0.088317 21.9340089 0.088317 21.9340089 9 0.0451668016 9"></polygon>
    </defs>
    <g id="blocks" stroke="none" stroke-width="1" fill="none" fill-rule="evenodd" transform="translate(-228.000000, -1579.000000)" opacity="0.3">
        <g id="junior---func-[]-copy-105" transform="translate(221.000000, 1564.000000)">
            <g id="icon_hover" transform="translate(7.000000, 15.000000)">
                <path d="M6.5,0 C5.67167857,0 5,0.447785714 5,1 L8,1 C8,0.447785714 7.32832143,0 6.5,0" id="Fill-1" fill="#FFFFFF"></path>
                <path d="M25.5,0 C24.6716786,0 24,0.447785714 24,1 L27,1 C27,0.447785714 26.3283214,0 25.5,0" id="Fill-3" fill="#FFFFFF"></path>
                <path d="M30.0526316,3 L19.9473684,3 C19.4262256,3 19,3.44990476 19,4 C19,4.55009524 19.4262256,5 19.9473684,5 L30.0526316,5 C30.5737744,5 31,4.55009524 31,4 C31,3.44990476 30.5737744,3 30.0526316,3" id="Fill-5" fill="#FFFFFF"></path>
                <path d="M12,4 C12,3.44990476 11.5737744,3 11.0526316,3 L0.947368421,3 C0.426225564,3 0,3.44990476 0,4 C0,4.55009524 0.426225564,5 0.947368421,5 L11.0526316,5 C11.5737744,5 12,4.55009524 12,4" id="Fill-7" fill="#FFFFFF"></path>
                <g id="Group-11" transform="translate(5.000000, 5.000000)">
                    <mask id="mask-2" fill="white">
                        <use xlink:href="#path-1"></use>
                    </mask>
                    <g id="Clip-10"></g>
                    <path d="M19.4388348,0.448857 L19.4388348,2.027547 L19.4382113,2.027547 L19.0253773,2.027547 C17.2511263,2.027547 15.5292478,1.607967 13.945604,0.799497 C13.0560737,0.344907 12.0508429,0.088317 10.9853126,0.088317 C9.91978219,0.088317 8.91392794,0.344907 8.02439757,0.799497 C6.45286721,1.602387 4.70604939,2.027547 2.94453522,2.027547 L2.54817895,2.027547 L2.54817895,0.448857 L0.0542518219,0.448857 L0.0451668016,2.159217 C0.0451668016,3.651777 0.603450202,4.862547 1.29275385,4.862547 C1.67200891,4.862547 2.01055951,4.495257 2.2394664,3.917547 L4.9154502,3.917547 C6.323183,3.917547 8.07855142,4.997907 8.80490769,8.051337 C8.93708583,8.607447 9.42963644,9.000027 9.99531255,9.000027 L11.9886729,9.000027 C12.555596,9.000027 13.0457417,8.608707 13.1784543,8.051967 C13.906681,4.997907 15.6479765,3.917547 17.0550858,3.917547 L19.7396202,3.917547 C19.9685271,4.495257 20.3070777,4.862547 20.6864219,4.862547 C21.3756364,4.862547 21.9340089,3.651777 21.9340089,2.159217 L21.9327619,0.448857 L19.4388348,0.448857 Z" id="Fill-9" fill="#FFFFFF" mask="url(#mask-2)"></path>
                </g>
                <polygon id="Fill-2" fill="#FFFFFF" points="13.8596 32 17.8596 32 17.8596 20.2062 13.8596 20.2062"></polygon>
                <polygon id="Fill-3" fill="#FFFFFF" points="15.8584 16 11.0004 20.858 20.7194 20.858 15.8604 16"></polygon>
                <polygon id="Fill-4" fill="#FFFFFF" points="20.719 31.3408 11 31.3408 15.86 36.1988"></polygon>
            </g>
        </g>
    </g>
</svg>