<?xml version="1.0" encoding="UTF-8"?>
<svg width="36px" height="27px" viewBox="0 0 36 27" version="1.1" xmlns="http://www.w3.org/2000/svg" xmlns:xlink="http://www.w3.org/1999/xlink">
    <!-- Generator: Sketch 48.2 (47327) - http://www.bohemiancoding.com/sketch -->
    <title>icon_spiral</title>
    <desc>Created with Sketch.</desc>
    <defs></defs>
    <g id="blocks" stroke="none" stroke-width="1" fill="none" fill-rule="evenodd" transform="translate(-650.000000, -1730.000000)" opacity="0.3">
        <g id="junior---func-[]-copy-15" transform="translate(642.000000, 1710.000000)" fill="#231F20">
            <g id="icon_spiral" transform="translate(8.000000, 20.000000)">
                <path d="M15.1831,26.2256 C5.6451,26.2256 0.5451,21.8866 0.0271,13.3286 C-0.2009,9.5836 1.0271,5.9926 3.3941,3.4766 C5.5041,1.2346 8.3911,-0.0004 11.5221,-0.0004 C16.8001,-0.0004 21.0951,4.2946 21.0951,9.5736 C21.0951,13.5996 17.8201,16.8746 13.7941,16.8746 C10.6451,16.8746 8.0831,14.3126 8.0831,11.1636 C8.0831,8.6286 10.1461,6.5656 12.6811,6.5656 L12.6811,10.5656 C12.3521,10.5656 12.0831,10.8336 12.0831,11.1636 C12.0831,12.1076 12.8511,12.8746 13.7941,12.8746 C15.6151,12.8746 17.0951,11.3936 17.0951,9.5736 C17.0951,6.4996 14.5951,3.9996 11.5221,3.9996 C9.4761,3.9996 7.6731,4.7676 6.3071,6.2186 C4.6921,7.9336 3.8581,10.4376 4.0191,13.0866 C4.4031,19.4076 7.8451,22.2256 15.1831,22.2256 C22.3881,22.2256 27.4471,14.8796 28.5491,7.9686 L32.4981,8.5986 C30.8711,18.8126 23.5881,26.2256 15.1831,26.2256" id="Fill-1"></path>
                <polygon id="Fill-3" points="35.269 9.3496 25.586 8.5046 30.85 4.0876"></polygon>
            </g>
        </g>
    </g>
</svg>