<?xml version="1.0" encoding="UTF-8"?>
<svg width="35px" height="34px" viewBox="0 0 35 34" version="1.1" xmlns="http://www.w3.org/2000/svg" xmlns:xlink="http://www.w3.org/1999/xlink">
    <!-- Generator: Sketch 48.2 (47327) - http://www.bohemiancoding.com/sketch -->
    <title>icon_triangle</title>
    <desc>Created with Sketch.</desc>
    <defs>
        <polygon id="path-1" points="0 0.8932 34.109 0.8932 34.109 31.1402 0 31.1402"></polygon>
    </defs>
    <g id="blocks" stroke="none" stroke-width="1" fill="none" fill-rule="evenodd" transform="translate(-225.000000, -1817.000000)" opacity="0.3">
        <g id="junior---func-[]-copy-17" transform="translate(219.000000, 1798.000000)">
            <g id="icon_triangle" transform="translate(6.000000, 18.000000)">
                <g id="Group-3" transform="translate(0.000000, 0.106900)">
                    <mask id="mask-2" fill="white">
                        <use xlink:href="#path-1"></use>
                    </mask>
                    <g id="Clip-2"></g>
                    <path d="M19.4901,31.1402 L2.0001,31.1402 C1.2841,31.1402 0.6241,30.7582 0.2661,30.1382 C-0.0899,29.5182 -0.0889,28.7542 0.2701,28.1362 L15.5111,1.8892 C15.8681,1.2722 16.5271,0.8932 17.2401,0.8932 L17.2451,0.8932 C17.9591,0.8942 18.6191,1.2772 18.9741,1.8972 L34.1091,28.2502 L30.6401,30.2432 L17.2301,6.8922 L5.4731,27.1402 L19.4901,27.1402 L19.4901,31.1402 Z" id="Fill-1" fill="#231F20" mask="url(#mask-2)"></path>
                </g>
                <polygon id="Fill-4" fill="#231F20" points="18.8378 24.3877 18.8378 34.1067 23.6958 29.2467"></polygon>
            </g>
        </g>
    </g>
</svg>