<?xml version="1.0" encoding="UTF-8"?>
<svg width="39px" height="27px" viewBox="0 0 39 27" version="1.1" xmlns="http://www.w3.org/2000/svg" xmlns:xlink="http://www.w3.org/1999/xlink">
    <!-- Generator: Sketch 48.2 (47327) - http://www.bohemiancoding.com/sketch -->
    <title>icon_armLED</title>
    <desc>Created with Sketch.</desc>
    <defs>
        <polygon id="path-1" points="0.0003 0.0003 38.646 0.0003 38.646 26.2643 0.0003 26.2643"></polygon>
    </defs>
    <g id="blocks" stroke="none" stroke-width="1" fill="none" fill-rule="evenodd" transform="translate(-226.000000, -2321.000000)" opacity="0.3">
        <g id="junior---func-[]-copy-24" transform="translate(222.000000, 2304.000000)">
            <g id="icon_armLED" transform="translate(4.000000, 17.000000)">
                <mask id="mask-2" fill="white">
                    <use xlink:href="#path-1"></use>
                </mask>
                <g id="Clip-2"></g>
                <path d="M4.8333,7.1958 C4.8333,7.1958 10.0833,8.0288 12.5833,9.6958 C15.0833,11.3628 17.0003,18.0288 17.0003,18.0288 C17.0003,18.0288 19.2503,15.1128 21.0833,13.9458 C22.9163,12.7788 28.6253,11.0498 29.1253,9.7168 C29.6253,8.3828 27.1253,7.2788 26.9583,5.4458 C26.7913,3.6128 27.3953,3.1338 27.8953,2.6338 C28.3953,2.1338 29.7913,1.8838 29.7913,1.8838 C29.7913,1.8838 31.9163,-0.4292 33.5833,0.0708 C35.2503,0.5708 35.9583,1.7588 36.9583,2.7588 C37.9583,3.7578 38.7913,6.3838 38.6253,7.8828 C38.4583,9.3838 37.9583,9.7788 37.4583,10.9458 C36.9583,12.1128 34.1253,13.3828 33.2913,14.3828 C32.4583,15.3838 29.1663,19.8628 26.1663,21.8628 C23.1663,23.8628 19.3333,25.6958 18.0003,26.1958 C16.6663,26.6958 9.3333,24.3828 6.5833,21.7588 C4.0223,19.3138 0.0003,15.5288 0.0003,13.8628 C0.0003,12.1958 4.8333,7.1958 4.8333,7.1958" id="Fill-1" fill="#000000" mask="url(#mask-2)"></path>
            </g>
        </g>
    </g>
</svg>