<?xml version="1.0" encoding="UTF-8"?>
<svg width="34px" height="34px" viewBox="0 0 34 34" version="1.1" xmlns="http://www.w3.org/2000/svg" xmlns:xlink="http://www.w3.org/1999/xlink">
    <!-- Generator: Sketch 48.2 (47327) - http://www.bohemiancoding.com/sketch -->
    <title>icon_stop</title>
    <desc>Created with Sketch.</desc>
    <defs></defs>
    <g id="blocks" stroke="none" stroke-width="1" fill="none" fill-rule="evenodd" transform="translate(-226.000000, -992.000000)" opacity="0.3">
        <g id="junior---func-[]-copy-5" transform="translate(220.000000, 976.000000)" fill="#FFFFFF">
            <path d="M15.9668397,16.4309126 L29.7429187,16.3106906 L39.5690874,25.9668397 L39.6893094,39.7429187 L30.0331603,49.5690874 L16.2570813,49.6893094 L6.43091264,40.0331603 L6.31069062,26.2570813 L15.9668397,16.4309126 Z M14.1975684,30.4606742 C13.6504532,29.4868865 12.8899745,29 11.9161094,29 C11.1939174,29 10.590276,29.2209716 10.1051672,29.6629213 C9.62005836,30.1011258 9.3775076,30.6460642 9.3775076,31.2977528 C9.3775076,32.2640498 9.95561732,32.9981248 11.1118541,33.5 L11.9270517,33.8483146 C12.1386029,33.941948 12.3209719,34.0402617 12.4741641,34.1432584 C12.6273564,34.2462552 12.7522792,34.356741 12.8489362,34.4747191 C12.9455932,34.5926972 13.0167171,34.7219094 13.06231,34.8623596 C13.107903,35.0028097 13.1306991,35.1573025 13.1306991,35.3258427 C13.1306991,35.7453204 12.9993934,36.0917589 12.7367781,36.3651685 C12.4741628,36.6385781 12.1440749,36.7752809 11.7465046,36.7752809 C11.2431586,36.7752809 10.8601837,36.5880169 10.5975684,36.2134831 C10.451671,36.0187256 10.3495444,35.6666692 10.2911854,35.1573034 L9,35.4494382 C9.11671791,36.258431 9.41033199,36.8857656 9.88085106,37.3314607 C10.358665,37.7771558 10.9641301,38 11.6972644,38 C12.4705206,38 13.1179305,37.7378303 13.6395137,37.2134831 C14.1574494,36.6928813 14.4164134,36.0337119 14.4164134,35.2359551 C14.4164134,34.6404465 14.2577523,34.1376425 13.9404255,33.7275281 C13.6230987,33.3174137 13.121584,32.9700389 12.4358663,32.6853933 L11.5933131,32.3314607 C10.980544,32.0730324 10.6741641,31.7322119 10.6741641,31.3089888 C10.6741641,31.0018711 10.7908803,30.747192 11.0243161,30.5449438 C11.2577519,30.3389503 11.551366,30.2359551 11.9051672,30.2359551 C12.1933145,30.2359551 12.4285705,30.2958796 12.6109422,30.4157303 C12.7860191,30.5205998 12.9702118,30.7453166 13.1635258,31.0898876 L14.1975684,30.4606742 Z M18.4431611,30.3988764 L20.3799392,30.3988764 L20.3799392,29.1685393 L15.2261398,29.1685393 L15.2261398,30.3988764 L17.1683891,30.3988764 L17.1683891,37.8426966 L18.4431611,37.8426966 L18.4431611,30.3988764 Z M20.8285714,33.4662921 C20.8285714,34.8558122 21.3063782,35.9793965 22.2620061,36.8370787 C23.1300955,37.6123634 24.109417,38 25.2,38 C26.4328329,38 27.485102,37.5636748 28.3568389,36.6910112 C29.2249284,35.822093 29.6589666,34.7640512 29.6589666,33.5168539 C29.6589666,32.2771474 29.226752,31.2153602 28.36231,30.3314607 C27.5015155,29.4475611 26.4693069,29.005618 25.2656535,29.005618 C24.0474103,29.005618 23.0042597,29.4438158 22.1361702,30.3202247 C21.2644333,31.1966336 20.8285714,32.2453122 20.8285714,33.4662921 Z M32.5367781,34.3202247 L33.1276596,34.3202247 C34.0066913,34.3202247 34.7051646,34.0880173 35.2231003,33.6235955 C35.741036,33.1591737 36,32.5299665 36,31.7359551 C36,30.9943783 35.7574492,30.3801522 35.2723404,29.8932584 C34.9951354,29.6123581 34.674166,29.4213488 34.3094225,29.3202247 C33.9483265,29.2191006 33.4139853,29.1685393 32.706383,29.1685393 L31.2620061,29.1685393 L31.2620061,37.8426966 L32.5367781,37.8426966 L32.5367781,34.3202247 Z M22.1142857,33.4831461 C22.1142857,32.5692838 22.4170182,31.8015012 23.0224924,31.1797753 C23.6279666,30.5505587 24.3702084,30.2359551 25.2492401,30.2359551 C26.1319193,30.2359551 26.8723374,30.5505587 27.4705167,31.1797753 C28.0723434,31.8052466 28.3732523,32.5805197 28.3732523,33.505618 C28.3732523,34.4194802 28.0686961,35.1947534 27.4595745,35.8314607 C26.8504529,36.4606773 26.10274,36.7752809 25.2164134,36.7752809 C24.399388,36.7752809 23.6790305,36.4662952 23.0553191,35.8483146 C22.4279604,35.230334 22.1142857,34.4419524 22.1142857,33.4831461 Z M32.5367781,33.1067416 L32.5367781,30.3764045 L32.9580547,30.3764045 C34.1653556,30.3764045 34.768997,30.8239656 34.768997,31.7191011 C34.768997,32.6441994 34.1835925,33.1067416 33.012766,33.1067416 L32.5367781,33.1067416 Z" id="icon_stop"></path>
        </g>
    </g>
</svg>