<?xml version="1.0" encoding="UTF-8"?>
<svg width="28px" height="28px" viewBox="0 0 28 28" version="1.1" xmlns="http://www.w3.org/2000/svg" xmlns:xlink="http://www.w3.org/1999/xlink">
    <!-- Generator: Sketch 48.2 (47327) - http://www.bohemiancoding.com/sketch -->
    <title>icon_wait</title>
    <desc>Created with Sketch.</desc>
    <defs></defs>
    <g id="blocks" stroke="none" stroke-width="1" fill="none" fill-rule="evenodd" transform="translate(-232.000000, -3588.000000)" opacity="0.3">
        <g id="junior---func-[]-copy-97" transform="translate(222.000000, 3571.000000)">
            <g id="icon_wait" transform="translate(5.000000, 11.000000)">
                <polygon id="Shape" points="0 0 37 0 37 37 0 37"></polygon>
                <path d="M19.7777778,12.2222222 L17.4444444,12.2222222 L17.4444444,21.5555556 L24.8333333,25.9888889 L26,24.0755556 L19.7777778,20.3888889 L19.7777778,12.2222222 Z M19,6 C11.2688889,6 5,12.2688889 5,20 C5,27.7311111 11.2533333,34 19,34 C26.7311111,34 33,27.7311111 33,20 C33,12.2688889 26.7311111,6 19,6 Z M19,30.8888889 C12.98,30.8888889 8.11111111,26.02 8.11111111,20 C8.11111111,13.98 12.98,9.11111111 19,9.11111111 C25.02,9.11111111 29.8888889,13.98 29.8888889,20 C29.8888889,26.02 25.02,30.8888889 19,30.8888889 Z" id="Shape" fill="#000000" fill-rule="nonzero"></path>
            </g>
        </g>
    </g>
</svg>