<?xml version="1.0" encoding="UTF-8"?>
<svg width="19px" height="34px" viewBox="0 0 19 34" version="1.1" xmlns="http://www.w3.org/2000/svg" xmlns:xlink="http://www.w3.org/1999/xlink">
    <!-- Generator: Sketch 48.2 (47327) - http://www.bohemiancoding.com/sketch -->
    <title>icon_lowbattery</title>
    <desc>Created with Sketch.</desc>
    <defs>
        <polygon id="path-1" points="0.0002475 0.1307625 32.7393 0.1307625 32.7393 18.15 0.0002475 18.15"></polygon>
        <polygon id="path-3" points="0 18.844485 32.7393 18.844485 32.7393 0.824835 0 0.824835"></polygon>
    </defs>
    <g id="blocks" stroke="none" stroke-width="1" fill="none" fill-rule="evenodd" transform="translate(-821.000000, -2142.000000)" opacity="0.3">
        <g id="junior---func-[]-copy-49" transform="translate(806.000000, 2117.000000)">
            <g id="icon_lowbattery" transform="translate(23.987500, 42.000000) rotate(-270.000000) translate(-23.987500, -42.000000) translate(7.487500, 32.000000)">
                <g id="Group-3" transform="translate(0.000000, 0.694485)">
                    <mask id="mask-2" fill="white">
                        <use xlink:href="#path-1"></use>
                    </mask>
                    <g id="Clip-2"></g>
                    <path d="M3.3002475,10.4341875 L6.2438475,10.4341875 L6.2438475,14.5418625 C6.2438475,14.7060375 6.3882225,14.8504125 6.5515725,14.8504125 L29.1169725,14.8504125 C29.2918725,14.8504125 29.4395475,14.7093375 29.4395475,14.5418625 L29.4395475,3.7525125 C29.4395475,3.5776125 29.2984725,3.4307625 29.1318225,3.4307625 L6.5515725,3.4307625 C6.3882225,3.4307625 6.2438475,3.5743125 6.2438475,3.7384875 L6.2438475,7.8461625 L3.3002475,7.8461625 L3.3002475,10.4341875 Z M29.1169725,18.1504125 L6.5515725,18.1504125 C4.5624975,18.1504125 2.9438475,16.5317625 2.9438475,14.5418625 L2.9438475,13.7341875 L0.0002475,13.7341875 L0.0002475,4.5461625 L2.9438475,4.5461625 L2.9438475,3.7384875 C2.9438475,1.7494125 4.5624975,0.1307625 6.5515725,0.1307625 L29.1318225,0.1307625 C31.1208975,0.1307625 32.7395475,1.7551875 32.7395475,3.7525125 L32.7395475,14.5418625 C32.7395475,16.5317625 31.1142975,18.1504125 29.1169725,18.1504125 Z" id="Fill-1" fill="#000000" mask="url(#mask-2)"></path>
                </g>
                <mask id="mask-4" fill="white">
                    <use xlink:href="#path-3"></use>
                </mask>
                <g id="Clip-5"></g>
                <polygon id="Fill-4" fill="#000000" mask="url(#mask-4)" points="25.287075 16.293585 30.9705 16.293585 30.9705 2.887335 25.287075 2.887335"></polygon>
                <path d="M14.0122281,16.1432538 C14.0122281,15.7786686 14.1456903,15.4629165 14.4126188,15.1959881 C14.6795472,14.9290597 14.9985544,14.7955975 15.36965,14.7955975 C15.7407456,14.7955975 16.0597528,14.9290597 16.3266813,15.1959881 C16.5936097,15.4629165 16.7270719,15.7819238 16.7270719,16.1530194 C16.7270719,16.5306254 16.5936097,16.8528878 16.3266813,17.1198163 C16.0662633,17.3802342 15.7472561,17.5104413 15.36965,17.5104413 C14.9855335,17.5104413 14.6632711,17.3802342 14.4028531,17.1198163 C14.1424352,16.8593983 14.0122281,16.5338807 14.0122281,16.1432538 Z M14.2661344,13.8776288 L14.2661344,2.15887875 L16.4731656,2.15887875 L16.4731656,13.8776288 L14.2661344,13.8776288 Z" id="!" fill="#000000" transform="translate(15.369650, 9.834660) rotate(-90.000000) translate(-15.369650, -9.834660) "></path>
            </g>
        </g>
    </g>
</svg>