<?xml version="1.0" encoding="UTF-8"?>
<svg width="39px" height="23px" viewBox="0 0 39 23" version="1.1" xmlns="http://www.w3.org/2000/svg" xmlns:xlink="http://www.w3.org/1999/xlink">
    <!-- Generator: Sketch 48.2 (47327) - http://www.bohemiancoding.com/sketch -->
    <title>icon_sway</title>
    <desc>Created with Sketch.</desc>
    <defs>
        <polygon id="path-1" points="0 0.819 38.6894323 0.819 38.6894323 23 0 23"></polygon>
    </defs>
    <g id="blocks" stroke="none" stroke-width="1" fill="none" fill-rule="evenodd" transform="translate(-647.000000, -1819.000000)" opacity="0.3">
        <g id="junior---func-[]-copy-19" transform="translate(642.000000, 1798.000000)">
            <g id="icon_sway" transform="translate(5.000000, 20.000000)">
                <g id="Group-3" transform="translate(0.000000, 0.181300)">
                    <mask id="mask-2" fill="white">
                        <use xlink:href="#path-1"></use>
                    </mask>
                    <g id="Clip-2"></g>
                    <path d="M20.4775,23 C13.7465,23 3.8885,16.243 3.4725,15.955 C1.1235,14.332 -0.1685,12.149 0.0175,10.117 C0.1435,8.737 0.9565,7.581 2.1935,7.026 C3.2125,6.568 5.3835,6.137 8.4485,8.396 C10.1735,9.668 16.4605,12.778 20.2935,12.778 C23.8965,12.778 31.0065,8.829 33.3645,7.183 C34.6675,6.272 34.8285,5.281 34.6225,4.977 C34.4525,4.727 33.5215,4.667 32.0355,5.641 C31.5845,5.936 31.1345,6.273 30.6635,6.625 C28.4375,8.284 25.3885,10.557 20.1105,10.557 C17.0785,10.557 13.6375,9.074 9.8865,6.15 L12.3455,2.995 C15.2915,5.292 18.0495,6.557 20.1105,6.557 C24.0625,6.557 26.2025,4.961 28.2725,3.418 C28.8115,3.016 29.3285,2.632 29.8425,2.295 C33.5755,-0.15 36.5955,0.756 37.9345,2.735 C39.3005,4.754 38.9665,8.149 35.6555,10.462 C35.5645,10.525 26.2395,16.778 20.2935,16.778 C15.2255,16.778 8.0685,13.085 6.0755,11.616 C5.0535,10.863 4.3515,10.684 4.0205,10.664 C4.1085,11.026 4.4925,11.798 5.7465,12.664 C8.2965,14.427 15.9155,19 20.4775,19 C25.3225,19 30.3315,15.698 30.3805,15.665 L32.5995,18.993 C32.3545,19.157 26.5195,23 20.4775,23" id="Fill-1" fill="#231F20" mask="url(#mask-2)"></path>
                </g>
                <polygon id="Fill-4" fill="#231F20" points="14.8252 1.4699 8.4632 8.8169 7.9712 1.9629"></polygon>
            </g>
        </g>
    </g>
</svg>