<?xml version="1.0" encoding="UTF-8"?>
<svg width="39px" height="39px" viewBox="0 0 39 39" version="1.1" xmlns="http://www.w3.org/2000/svg" xmlns:xlink="http://www.w3.org/1999/xlink">
    <!-- Generator: Sketch 48.2 (47327) - http://www.bohemiancoding.com/sketch -->
    <title>icon_upsidedown</title>
    <desc>Created with Sketch.</desc>
    <defs>
        <polygon id="path-1" points="0 0.735 38.2648 0.735 38.2648 38.9999 0 38.9999"></polygon>
    </defs>
    <g id="blocks" stroke="none" stroke-width="1" fill="none" fill-rule="evenodd" transform="translate(-597.000000, -2142.000000)" opacity="0.3">
        <g id="junior---func-[]-copy-23" transform="translate(592.000000, 2117.000000)">
            <g id="icon_upsidedown" transform="translate(5.000000, 24.000000)">
                <g id="Group-3" transform="translate(0.000000, 0.265100)">
                    <mask id="mask-2" fill="white">
                        <use xlink:href="#path-1"></use>
                    </mask>
                    <g id="Clip-2"></g>
                    <path d="M19.1328,4.7349 C10.7878,4.7349 3.9998,11.5239 3.9998,19.8669 C3.9998,28.2119 10.7878,34.9999 19.1328,34.9999 C27.4768,34.9999 34.2648,28.2119 34.2648,19.8669 C34.2648,11.5239 27.4768,4.7349 19.1328,4.7349 M19.1328,38.9999 C8.5828,38.9999 -0.0002,30.4169 -0.0002,19.8669 C-0.0002,9.3179 8.5828,0.7349 19.1328,0.7349 C29.6828,0.7349 38.2648,9.3179 38.2648,19.8669 C38.2648,30.4169 29.6828,38.9999 19.1328,38.9999" id="Fill-1" fill="#000000" mask="url(#mask-2)"></path>
                </g>
                <path d="M27.0166,25.0219 C27.0166,26.4029 25.8976,27.5219 24.5166,27.5219 C23.1356,27.5219 22.0166,26.4029 22.0166,25.0219 C22.0166,23.6409 23.1356,22.5219 24.5166,22.5219 C25.8976,22.5219 27.0166,23.6409 27.0166,25.0219" id="Fill-4" fill="#000000"></path>
                <path d="M16.2666,25.0219 C16.2666,26.4029 15.1476,27.5219 13.7666,27.5219 C12.3856,27.5219 11.2666,26.4029 11.2666,25.0219 C11.2666,23.6409 12.3856,22.5219 13.7666,22.5219 C15.1476,22.5219 16.2666,23.6409 16.2666,25.0219" id="Fill-6" fill="#000000"></path>
                <path d="M10.4521,19.6474 C10.1521,19.6474 9.8471,19.5794 9.5591,19.4364 C8.5711,18.9414 8.1711,17.7404 8.6651,16.7524 C8.7791,16.5234 11.5571,11.1474 19.3291,11.1474 C27.1221,11.1474 29.7721,16.4694 29.8811,16.6964 C30.3601,17.6914 29.9411,18.8864 28.9461,19.3654 C27.9531,19.8444 26.7561,19.4274 26.2771,18.4304 C26.2191,18.3204 24.5181,15.1474 19.3291,15.1474 C14.0021,15.1474 12.2601,18.5074 12.2431,18.5414 C11.8921,19.2424 11.1861,19.6474 10.4521,19.6474" id="Fill-8" fill="#000000"></path>
            </g>
        </g>
    </g>
</svg>