<?xml version="1.0" encoding="UTF-8"?>
<svg width="17px" height="31px" viewBox="0 0 17 31" version="1.1" xmlns="http://www.w3.org/2000/svg" xmlns:xlink="http://www.w3.org/1999/xlink">
    <!-- Generator: Sketch 48.2 (47327) - http://www.bohemiancoding.com/sketch -->
    <title>icon_getbattery</title>
    <desc>Created with Sketch.</desc>
    <defs>
        <polygon id="path-1" points="0 0.122477273 30.7551 0.122477273 30.7551 17 0 17"></polygon>
        <polygon id="path-3" points="0 17 31 17 31 0 0 0"></polygon>
    </defs>
    <g id="blocks" stroke="none" stroke-width="1" fill="none" fill-rule="evenodd" transform="translate(-495.000000, -1980.000000)" opacity="0.3">
        <g id="junior---func-[]-copy-26" transform="translate(469.000000, 1965.000000)">
            <g id="icon_getbattery" transform="translate(34.500000, 30.500000) rotate(-270.000000) translate(-34.500000, -30.500000) translate(19.000000, 22.000000)">
                <g id="Group-3">
                    <mask id="mask-2" fill="white">
                        <use xlink:href="#path-1"></use>
                    </mask>
                    <g id="Clip-2"></g>
                    <path d="M3.1,9.77306818 L5.8652,9.77306818 L5.8652,13.6204773 C5.8652,13.77425 6.000825,13.9094773 6.154275,13.9094773 L27.352075,13.9094773 C27.516375,13.9094773 27.6551,13.7773409 27.6551,13.6204773 L27.6551,3.51475 C27.6551,3.35093182 27.522575,3.21338636 27.366025,3.21338636 L6.154275,3.21338636 C6.000825,3.21338636 5.8652,3.34784091 5.8652,3.50161364 L5.8652,7.34902273 L3.1,7.34902273 L3.1,9.77306818 Z M27.352075,17.0003864 L6.154275,17.0003864 C4.28575,17.0003864 2.7652,15.4842955 2.7652,13.6204773 L2.7652,12.8639773 L0,12.8639773 L0,4.25811364 L2.7652,4.25811364 L2.7652,3.50161364 C2.7652,1.63856818 4.28575,0.122477273 6.154275,0.122477273 L27.366025,0.122477273 C29.23455,0.122477273 30.7551,1.64397727 30.7551,3.51475 L30.7551,13.6204773 C30.7551,15.4842955 29.22835,17.0003864 27.352075,17.0003864 Z" id="Fill-1" fill="#000000" mask="url(#mask-2)"></path>
                </g>
                <mask id="mask-4" fill="white">
                    <use xlink:href="#path-3"></use>
                </mask>
                <g id="Clip-5"></g>
                <polygon id="Fill-4" fill="#000000" mask="url(#mask-4)" points="9 15 29 15 29 2 9 2"></polygon>
            </g>
        </g>
    </g>
</svg>