<?xml version="1.0" encoding="UTF-8"?>
<svg width="27px" height="35px" viewBox="0 0 27 35" version="1.1" xmlns="http://www.w3.org/2000/svg" xmlns:xlink="http://www.w3.org/1999/xlink">
    <!-- Generator: Sketch 48.2 (47327) - http://www.bohemiancoding.com/sketch -->
    <title>icon_zigzag</title>
    <desc>Created with Sketch.</desc>
    <defs>
        <polygon id="path-1" points="0 0.293 26.9976 0.293 26.9976 33 0 33"></polygon>
        <polygon id="path-3" points="0.9705 0.98 7.4305 0.98 7.4305 9.7822 0.9705 9.7822"></polygon>
    </defs>
    <g id="blocks" stroke="none" stroke-width="1" fill="none" fill-rule="evenodd" transform="translate(-791.000000, -1813.000000)" opacity="0.3">
        <g id="junior---func-[]-copy-20" transform="translate(782.000000, 1798.000000)">
            <g id="icon_zigzag" transform="translate(9.000000, 14.000000)">
                <g id="Group-3" transform="translate(0.000000, 3.020400)">
                    <mask id="mask-2" fill="white">
                        <use xlink:href="#path-1"></use>
                    </mask>
                    <g id="Clip-2"></g>
                    <path d="M23.0986,33 L1.1526,22.732 C0.4496,22.403 -0.0004,21.697 -0.0004,20.921 C-0.0004,20.145 0.4496,19.438 1.1526,19.109 L20.2786,10.16 L6.9336,3.917 L8.6286,0.293 L25.8456,8.349 C26.5486,8.678 26.9976,9.384 26.9976,10.16 C26.9976,10.937 26.5486,11.643 25.8456,11.972 L6.7196,20.921 L24.7936,29.377 L23.0986,33 Z" id="Fill-1" fill="#231F20" mask="url(#mask-2)"></path>
                </g>
                <g id="Group-6" transform="translate(3.000000, 0.020400)">
                    <mask id="mask-4" fill="white">
                        <use xlink:href="#path-3"></use>
                    </mask>
                    <g id="Clip-5"></g>
                    <polygon id="Fill-4" fill="#231F20" mask="url(#mask-4)" points="3.3115 9.7822 7.4305 0.9792 0.9705 3.3222"></polygon>
                </g>
            </g>
        </g>
    </g>
</svg>