<?xml version="1.0" encoding="UTF-8"?>
<svg width="26px" height="26px" viewBox="0 0 26 26" version="1.1" xmlns="http://www.w3.org/2000/svg" xmlns:xlink="http://www.w3.org/1999/xlink">
    <!-- Generator: Sketch 48.2 (47327) - http://www.bohemiancoding.com/sketch -->
    <title>icon_audio</title>
    <desc>Created with Sketch.</desc>
    <defs></defs>
    <g id="blocks" stroke="none" stroke-width="1" fill="none" fill-rule="evenodd" transform="translate(-233.000000, -2568.000000)" opacity="0.3">
        <g id="junior---func-[]-copy-46" transform="translate(222.000000, 2548.000000)">
            <g id="icon_audio" transform="translate(7.000000, 15.000000)">
                <path d="M4,13.5530217 L4,22.4469783 L9.77777778,22.4469783 L17,29.8586089 L17,6.14139111 L9.77777778,13.5530217 L4,13.5530217 Z M23.5,18 C23.5,15.3762828 22.0266667,13.1231471 19.8888889,12.0262258 L19.8888889,23.958951 C22.0266667,22.8768529 23.5,20.6237172 23.5,18 Z M19.8888889,5 L19.8888889,8.05359179 C24.0633333,9.32839225 27.1111111,13.3010262 27.1111111,18 C27.1111111,22.6989738 24.0633333,26.6716078 19.8888889,27.9464082 L19.8888889,31 C25.6811111,29.6510832 30,24.3443558 30,18 C30,11.6556442 25.6811111,6.34891676 19.8888889,5 Z" id="Shape" fill="#000000" fill-rule="nonzero"></path>
                <polygon id="Shape" points="0 0 35 0 35 35 0 35"></polygon>
            </g>
        </g>
    </g>
</svg>