<?xml version="1.0" encoding="UTF-8"?>
<svg width="22px" height="30px" viewBox="0 0 22 30" version="1.1" xmlns="http://www.w3.org/2000/svg" xmlns:xlink="http://www.w3.org/1999/xlink">
    <!-- Generator: Sketch 48.2 (47327) - http://www.bohemiancoding.com/sketch -->
    <title>icon_180</title>
    <desc>Created with Sketch.</desc>
    <defs>
        <polygon id="path-1" points="0.3236 0.312162162 19.3424 0.312162162 19.3424 29.9997568 0.3236 29.9997568"></polygon>
        <polygon id="path-3" points="0 30 21 30 21 0 0 0"></polygon>
    </defs>
    <g id="blocks" stroke="none" stroke-width="1" fill="none" fill-rule="evenodd" transform="translate(-235.000000, -1334.000000)" opacity="0.3">
        <g id="junior---func-[]-copy-10" transform="translate(222.000000, 1315.000000)">
            <g id="icon_180" transform="translate(13.000000, 19.000000)">
                <g id="Group-3" transform="translate(2.000000, 0.000000)">
                    <mask id="mask-2" fill="white">
                        <use xlink:href="#path-1"></use>
                    </mask>
                    <g id="Clip-2"></g>
                    <path d="M15.5004,4.02786486 C13.006,1.54678378 9.7684,0.31272973 6.5332,0.311918919 L6.5332,3.55272973 C8.9652,3.54948649 11.4004,4.47137838 13.2708,6.33137838 C17.05,10.0911081 17.1084,16.2597568 13.3988,20.0908378 C11.5388,22.0124595 9.0916,22.9408378 6.6372,22.9538108 L6.5684,18.8121892 L0.3236,24.4821892 L6.7172,29.9997568 L6.6676,26.2327297 C9.9484,26.2011081 13.206,24.9208378 15.6836,22.3619189 C20.6364,17.2465135 20.5484,9.04840541 15.5004,4.02786486" id="Fill-1" fill="#FFFFFF" mask="url(#mask-2)"></path>
                </g>
                <mask id="mask-4" fill="white">
                    <use xlink:href="#path-3"></use>
                </mask>
                <g id="Clip-4"></g>
                <path d="M0.709960938,10.5253906 L-0.59375,10.5253906 L0.03125,9.4609375 L1.84765625,9.4609375 L1.84765625,17 L0.709960938,17 L0.709960938,10.5253906 Z M5.09570312,13.0791016 C4.54231494,12.6884746 4.265625,12.1562534 4.265625,11.4824219 C4.265625,10.8704396 4.47558384,10.3593771 4.89550781,9.94921875 C5.31868701,9.53906045 5.8443979,9.33398438 6.47265625,9.33398438 C7.09765937,9.33398438 7.6184875,9.53906045 8.03515625,9.94921875 C8.451825,10.3561218 8.66015625,10.868812 8.66015625,11.4873047 C8.66015625,12.1350944 8.3850939,12.6640604 7.83496094,13.0742188 C8.13769683,13.23698 8.37532466,13.4746078 8.54785156,13.7871094 C8.72363369,14.0996109 8.81152344,14.4511699 8.81152344,14.8417969 C8.81152344,15.5091179 8.59342666,16.0559875 8.15722656,16.4824219 C7.72102646,16.9088563 7.16276382,17.1220703 6.48242188,17.1220703 C5.78580381,17.1220703 5.21126528,16.9072287 4.75878906,16.4775391 C4.30305762,16.0478494 4.07519531,15.5074902 4.07519531,14.8564453 C4.07519531,14.0100869 4.41536118,13.4176449 5.09570312,13.0791016 Z M5.33496094,11.4775391 C5.33496094,11.7998063 5.44400933,12.0699859 5.66210938,12.2880859 C5.88346465,12.5094412 6.15038906,12.6201172 6.46289062,12.6201172 C6.77213696,12.6201172 7.03743379,12.5094412 7.25878906,12.2880859 C7.48014434,12.0667307 7.59082031,11.8014338 7.59082031,11.4921875 C7.59082031,11.1829412 7.48014434,10.9176443 7.25878906,10.6962891 C7.03743379,10.4749338 6.77213696,10.3642578 6.46289062,10.3642578 C6.15364429,10.3642578 5.88834746,10.4749338 5.66699219,10.6962891 C5.44563691,10.9176443 5.33496094,11.1780584 5.33496094,11.4775391 Z M5.19335938,14.8173828 C5.19335938,15.1656918 5.31380088,15.465168 5.5546875,15.7158203 C5.79882935,15.9632174 6.09505034,16.0869141 6.44335938,16.0869141 C6.78841318,16.0869141 7.08300659,15.964845 7.32714844,15.7207031 C7.57129028,15.4733061 7.69335938,15.1770851 7.69335938,14.8320312 C7.69335938,14.4837222 7.57129028,14.1875012 7.32714844,13.9433594 C7.08300659,13.6992175 6.78841318,13.5771484 6.44335938,13.5771484 C6.10156079,13.5771484 5.80696738,13.6992175 5.55957031,13.9433594 C5.31542847,14.1875012 5.19335938,14.4788395 5.19335938,14.8173828 Z M9.89160156,13.1816406 C9.89160156,11.9804627 10.1715467,11.0218135 10.7314453,10.3056641 C11.2327499,9.65787437 11.8398402,9.33398438 12.5527344,9.33398438 C13.2656286,9.33398438 13.8727188,9.65787437 14.3740234,10.3056641 C14.9339221,11.0218135 15.2138672,11.9967386 15.2138672,13.2304688 C15.2138672,14.4609437 14.9339221,15.4342412 14.3740234,16.1503906 C13.8727188,16.7981803 13.2672562,17.1220703 12.5576172,17.1220703 C11.8479782,17.1220703 11.2392604,16.7981803 10.7314453,16.1503906 C10.1715467,15.4342412 9.89160156,14.4446678 9.89160156,13.1816406 Z M11.0097656,13.1865234 C11.0097656,14.0231162 11.1546209,14.7180962 11.4443359,15.2714844 C11.7340509,15.8151069 12.1035134,16.0869141 12.5527344,16.0869141 C12.9987001,16.0869141 13.3681626,15.8151069 13.6611328,15.2714844 C13.954103,14.7311171 14.1005859,14.0491578 14.1005859,13.2255859 C14.1005859,12.4020141 13.954103,11.7184272 13.6611328,11.1748047 C13.3681626,10.6344374 12.9987001,10.3642578 12.5527344,10.3642578 C12.1100238,10.3642578 11.742189,10.6344374 11.4492188,11.1748047 C11.1562485,11.7119167 11.0097656,12.382483 11.0097656,13.1865234 Z" id="180" fill="#FFFFFF" mask="url(#mask-4)"></path>
            </g>
        </g>
    </g>
</svg>