<?xml version="1.0" encoding="UTF-8"?>
<svg width="20px" height="28px" viewBox="0 0 20 28" version="1.1" xmlns="http://www.w3.org/2000/svg" xmlns:xlink="http://www.w3.org/1999/xlink">
    <!-- Generator: Sketch 48.2 (47327) - http://www.bohemiancoding.com/sketch -->
    <title>icon_light</title>
    <desc>Created with Sketch.</desc>
    <defs>
        <polygon id="path-1" points="0 0 34 0 34 34 0 34"></polygon>
    </defs>
    <g id="blocks" stroke="none" stroke-width="1" fill="none" fill-rule="evenodd" transform="translate(-235.000000, -2418.000000)" opacity="0.3">
        <g id="junior---func-[]-copy-44" transform="translate(222.000000, 2400.000000)">
            <g id="icon_light" transform="translate(6.000000, 15.000000)">
                <mask id="mask-2" fill="white">
                    <use xlink:href="#path-1"></use>
                </mask>
                <g id="a"></g>
                <path d="M12.7142857,29.6 C12.7142857,30.37 13.3571429,31 14.1428571,31 L19.8571429,31 C20.6428571,31 21.2857143,30.37 21.2857143,29.6 L21.2857143,28.2 L12.7142857,28.2 L12.7142857,29.6 Z M17,3 C11.4857143,3 7,7.396 7,12.8 C7,16.132 8.7,19.058 11.2857143,20.836 L11.2857143,24 C11.2857143,24.77 11.9285714,25.4 12.7142857,25.4 L21.2857143,25.4 C22.0714286,25.4 22.7142857,24.77 22.7142857,24 L22.7142857,20.836 C25.3,19.058 27,16.132 27,12.8 C27,7.396 22.5142857,3 17,3 Z M21.0714286,18.54 L19.8571429,19.38 L19.8571429,22.6 L14.1428571,22.6 L14.1428571,19.38 L12.9285714,18.54 C11,17.224 9.85714286,15.082 9.85714286,12.8 C9.85714286,8.936 13.0571429,5.8 17,5.8 C20.9428571,5.8 24.1428571,8.936 24.1428571,12.8 C24.1428571,15.082 23,17.224 21.0714286,18.54 Z" id="Shape" fill="#000000" fill-rule="nonzero" mask="url(#mask-2)"></path>
            </g>
        </g>
    </g>
</svg>