<?xml version="1.0" encoding="UTF-8"?>
<svg width="30px" height="30px" viewBox="0 0 30 30" version="1.1" xmlns="http://www.w3.org/2000/svg" xmlns:xlink="http://www.w3.org/1999/xlink">
    <!-- Generator: Sketch 49 (51002) - http://www.bohemiancoding.com/sketch -->
    <title>stop sign</title>
    <desc>Created with Sketch.</desc>
    <defs></defs>
    <g id="Mockup" stroke="none" stroke-width="1" fill="none" fill-rule="evenodd">
        <g id="neutral-starting-page---connected" transform="translate(-348.000000, -21.000000)">
            <g id="stop" transform="translate(338.000000, 14.000000)">
                <g id="stop-sign" transform="translate(10.000000, 7.000000)">
                    <polygon id="Fill-1" fill="#CC191E" points="8.78678571 0 0 8.78678571 0 21.2132143 8.78678571 30 21.2127857 30 30 21.2132143 30 8.78678571 21.2127857 0"></polygon>
                    <g id="Group-10" transform="translate(4.000000, 11.000000)" fill="#FFFFFF">
                        <path d="M1.63242445,5.69361693 C1.63242445,5.87446349 1.64739305,6.03856931 1.67706765,6.18642116 C1.70698297,6.33427302 1.76285262,6.45880212 1.84513616,6.55986032 C1.92717897,6.66066455 2.03727697,6.73979683 2.17518944,6.79765926 C2.3131019,6.85533122 2.48653197,6.88402963 2.6952608,6.88402963 C2.94138925,6.88402963 3.16346727,6.80671746 3.36121037,6.65141587 C3.55895347,6.49611429 3.65760618,6.25602963 3.65760618,5.93164868 C3.65760618,5.75871746 3.63351199,5.60883386 3.58466708,5.4831619 C3.53652245,5.35679153 3.45609905,5.24307725 3.34438164,5.1415746 C3.23218278,5.04074921 3.08538544,4.94898201 2.90215138,4.86601905 C2.71887355,4.78284444 2.49355671,4.69806138 2.22497536,4.61171217 C1.86662617,4.49596614 1.55716565,4.36982857 1.2960686,4.23215661 C1.03497155,4.09518307 0.816657564,3.93444233 0.641104757,3.75065397 C0.465573834,3.56665397 0.337224643,3.35393439 0.255181827,3.11226243 C0.172920171,2.87084444 0.132237964,2.59099259 0.132237964,2.27338413 C0.132237964,1.50841058 0.351952521,0.938738624 0.792344529,0.563034921 C1.23271465,0.187796825 1.83695157,0.000156613757 2.60575557,0.000156613757 C2.96408287,0.000156613757 3.29389543,0.0379132275 3.59589353,0.113849735 C3.89835119,0.189616931 4.15920752,0.31213545 4.37962236,0.481659259 C4.59959952,0.651437037 4.77162902,0.867775661 4.89457288,1.13088677 C5.01753863,1.39446349 5.0792294,1.71004021 5.0792294,2.07806138 L5.0792294,2.29442116 L3.53464044,2.29442116 C3.53464044,1.92637884 3.4673255,1.64314074 3.33315519,1.44464339 C3.19850343,1.2466328 2.97482788,1.14718307 2.66184405,1.14718307 C2.48257098,1.14718307 2.33319134,1.17226243 2.21398963,1.22290794 C2.09452531,1.27332063 1.99941779,1.34022011 1.92882027,1.42318307 C1.85776318,1.5061672 1.80913711,1.60153228 1.7834235,1.71004021 C1.75700961,1.81833651 1.74392303,1.93067513 1.74392303,2.04595556 C1.74392303,2.28400847 1.79605052,2.4842836 1.90028363,2.64637884 C2.00477935,2.80868571 2.22847678,2.95856931 2.57207621,3.09531005 L3.81468896,3.61501376 C4.12018849,3.74500317 4.37005909,3.88017778 4.5645196,4.02102434 C4.75830171,4.16184974 4.91328363,4.31376508 5.02852436,4.47560635 C5.1437432,4.6381672 5.22440733,4.8165164 5.26905052,5.01114074 C5.31415328,5.20623069 5.33636546,5.42235767 5.33636546,5.66060106 C5.33636546,6.47622011 5.09185642,7.07029418 4.60334167,7.44146878 C4.1143236,7.81310899 3.43366803,7.9989291 2.56087165,7.9989291 C1.6501942,7.9989291 0.999432065,7.80790265 0.607928735,7.42498201 C0.21640352,7.04318307 0.0205205519,6.49475979 0.0205205519,5.78043175 L0.0205205519,5.4666328 L1.63196489,5.4666328 L1.63242445,5.69361693 Z" id="Fill-2"></path>
                        <polygon id="Fill-4" points="10.8211914 1.42975026 9.07511722 1.42975026 9.07511722 7.88024762 7.46391361 7.88024762 7.46391361 1.42975026 5.71759867 1.42975026 5.71759867 0.152311111 10.8214322 0.152311111"></polygon>
                        <path d="M12.9975954,5.34209735 C13.0237686,5.70626667 13.0758961,6.00239365 13.1541968,6.22961058 C13.2324974,6.45701799 13.3442367,6.62294392 13.4903338,6.7278328 C13.6350303,6.83248889 13.8273899,6.88491217 14.0667343,6.88491217 C14.3051597,6.88491217 14.4973005,6.83248889 14.6424565,6.7278328 C14.7876344,6.62294392 14.9000521,6.45722963 14.9783528,6.22961058 C15.0559751,6.00285926 15.1090217,5.70626667 15.1344946,5.34209735 C15.1606896,4.97792804 15.1737543,4.53574815 15.1737543,4.01648889 C15.1737543,3.49701799 15.1606896,3.05667937 15.1344946,2.6958963 C15.1090217,2.33485926 15.0564346,2.03940952 14.9783528,1.80838307 C14.900271,1.57735661 14.7876344,1.40984339 14.6424565,1.3049545 C14.4973005,1.20053122 14.3051597,1.14853122 14.0667343,1.14853122 C13.8273899,1.14853122 13.6350303,1.20074286 13.4903338,1.3049545 C13.3442367,1.40984339 13.2329789,1.57758942 13.1541968,1.80838307 C13.0758961,2.03964233 13.0237686,2.33532487 12.9975954,2.6958963 C12.9718818,3.05689101 12.9587952,3.49680635 12.9587952,4.01648889 C12.9587952,4.53574815 12.9714223,4.97792804 12.9975954,5.34209735 M11.431035,2.39816085 C11.4869047,1.90402328 11.6100892,1.47993862 11.8001073,1.12637249 C11.9908476,0.773271958 12.2648124,0.497017989 12.6231397,0.298118519 C12.9807667,0.100065608 13.4625193,0.000615873016 14.0667343,0.000615873016 C14.6707524,0.000615873016 15.1518048,0.099621164 15.5103509,0.298118519 C15.8684594,0.496827513 16.1428837,0.772827513 16.3331425,1.12637249 C16.5238828,1.47993862 16.6463452,1.90402328 16.7024775,2.39816085 C16.7585441,2.89231958 16.7866211,3.43168466 16.7866211,4.01627725 C16.7866211,4.60808677 16.7585441,5.14903915 16.7024775,5.6396 C16.6463452,6.13081693 16.5238828,6.55217143 16.3331425,6.90616085 C16.1428837,7.26019259 15.8689189,7.5305418 15.5103509,7.71818201 C15.151564,7.90580106 14.6707524,7.99938836 14.0667343,7.99938836 C13.4625193,7.99938836 12.9807667,7.90580106 12.6231397,7.71818201 C12.2650312,7.5305418 11.9906069,7.26019259 11.8001073,6.90616085 C11.6100892,6.55217143 11.4869047,6.13081693 11.431035,5.6396 C11.3749465,5.14927196 11.3468913,4.60808677 11.3468913,4.01627725 C11.3468913,3.43168466 11.3749465,2.89255238 11.431035,2.39816085" id="Fill-6"></path>
                        <path d="M20.3124248,3.64779683 C20.6326741,3.64779683 20.8925894,3.55467513 21.0898511,3.36659048 C21.287638,3.17941587 21.3867284,2.88735238 21.3867284,2.48995556 C21.3867284,2.10022011 21.3011841,1.80453757 21.1296142,1.60244233 C20.9575628,1.4008127 20.6705114,1.29931005 20.2673002,1.29931005 L19.5957702,1.29931005 L19.5957702,3.64779683 L20.3124248,3.64779683 Z M20.8049443,0.152071958 C21.2151584,0.152071958 21.5601803,0.218759788 21.8404258,0.35234709 C22.1199929,0.485743915 22.3450909,0.660685714 22.5176018,0.877257143 C22.688931,1.09382857 22.8116342,1.34089735 22.8866741,1.61848466 C22.9612326,1.89655873 22.9986323,2.17979683 22.9986323,2.46826243 C22.9986323,2.86519365 22.9373792,3.21173333 22.8139757,3.50718307 C22.6912507,3.80333122 22.5194619,4.04477037 22.2995067,4.23238942 C22.0795514,4.42047407 21.812852,4.56085503 21.4989272,4.65465397 C21.1857027,4.74824127 20.8388425,4.79526772 20.4582812,4.79526772 L19.5962298,4.79526772 L19.5962298,7.87956402 L17.9848073,7.87956402 L17.9848073,0.152071958 L20.8049443,0.152071958 Z" id="Fill-8"></path>
                    </g>
                </g>
            </g>
        </g>
    </g>
</svg>