<?xml version="1.0" encoding="UTF-8"?>
<svg width="32px" height="32px" viewBox="0 0 32 32" version="1.1" xmlns="http://www.w3.org/2000/svg" xmlns:xlink="http://www.w3.org/1999/xlink">
    <!-- Generator: Sketch 49 (51002) - http://www.bohemiancoding.com/sketch -->
    <title>timing icon</title>
    <desc>Created with Sketch.</desc>
    <defs></defs>
    <g id="Mockup" stroke="none" stroke-width="1" fill="none" fill-rule="evenodd">
        <g id="neutral-starting-page---disconnected-junior" transform="translate(-159.000000, -563.000000)">
            <g id="icon/timing" transform="translate(160.000000, 564.000000)">
                <g id="timing-icon">
                    <circle id="Oval-Copy-10" stroke="#979797" fill="#F4F4F4" cx="15" cy="15" r="15"></circle>
                    <g id="ic_access_time_black_24px" transform="translate(3.000000, 3.000000)">
                        <path d="M11.99,2 C6.47,2 2,6.48 2,12 C2,17.52 6.47,22 11.99,22 C17.52,22 22,17.52 22,12 C22,6.48 17.52,2 11.99,2 Z M12,20 C7.58,20 4,16.42 4,12 C4,7.58 7.58,4 12,4 C16.42,4 20,7.58 20,12 C20,16.42 16.42,20 12,20 Z" id="Shape" fill="#979797" fill-rule="nonzero"></path>
                        <polygon id="Shape" points="0 0 24 0 24 24 0 24"></polygon>
                        <polygon id="Shape" fill="#979797" fill-rule="nonzero" points="12.5 7 11 7 11 13 16.25 16.15 17 14.92 12.5 12.25"></polygon>
                    </g>
                </g>
            </g>
        </g>
    </g>
</svg>