<?xml version="1.0" encoding="UTF-8"?>
<svg width="147px" height="62px" viewBox="0 0 147 62" version="1.1" xmlns="http://www.w3.org/2000/svg" xmlns:xlink="http://www.w3.org/1999/xlink">
    <!-- Generator: Sketch 49 (51002) - http://www.bohemiancoding.com/sketch -->
    <title>logo branding</title>
    <desc>Created with Sketch.</desc>
    <defs>
        <filter x="-5.0%" y="-9.3%" width="110.0%" height="127.8%" filterUnits="objectBoundingBox" id="filter-1">
            <feOffset dx="0" dy="2" in="SourceAlpha" result="shadowOffsetOuter1"></feOffset>
            <feGaussianBlur stdDeviation="2" in="shadowOffsetOuter1" result="shadowBlurOuter1"></feGaussianBlur>
            <feColorMatrix values="0 0 0 0 0   0 0 0 0 0   0 0 0 0 0  0 0 0 0.2 0" type="matrix" in="shadowBlurOuter1" result="shadowMatrixOuter1"></feColorMatrix>
            <feMerge>
                <feMergeNode in="shadowMatrixOuter1"></feMergeNode>
                <feMergeNode in="SourceGraphic"></feMergeNode>
            </feMerge>
        </filter>
        <polygon id="path-2" points="0 0.136267347 109.749142 0.136267347 109.749142 30.1224306 0 30.1224306"></polygon>
        <polygon id="path-4" points="0.126363746 0.13077551 35.1609204 0.13077551 35.1609204 24.0032571 0.126363746 24.0032571"></polygon>
        <polygon id="path-6" points="0 54 138.6923 54 138.6923 0.13077551 0 0.13077551"></polygon>
    </defs>
    <g id="Mockup" stroke="none" stroke-width="1" fill="none" fill-rule="evenodd">
        <g id="neutral-starting-page---disconnected-junior" transform="translate(-27.000000, -8.000000)">
            <g id="branding">
                <g id="logo-branding" filter="url(#filter-1)" transform="translate(31.000000, 10.000000)">
                    <g id="Group-26">
                        <path d="M138.590026,44.9268796 C138.590026,46.5830633 137.238572,47.9255327 135.571716,47.9255327 L24.0983707,47.9255327 L18.8681872,53.1216551 C17.6894085,54.2927571 15.7783302,54.2927571 14.5997363,53.1216551 L9.36936801,47.9255327 L4.31241474,47.9255327 C2.64555953,47.9255327 1.29410527,46.5830633 1.29410527,44.9268796 L1.29410527,27.0122878 C1.29410527,25.3562878 2.64555953,24.0138184 4.31241474,24.0138184 L9.15176723,24.0138184 L13.34941,28.1841245 C14.5281888,29.3552265 16.4392671,29.3552265 17.6180458,28.1841245 L21.8156886,24.0138184 L135.571716,24.0138184 C137.238572,24.0138184 138.590026,25.3562878 138.590026,27.0122878 L138.590026,44.9268796 Z" id="Fill-1" fill="#00A9FB"></path>
                        <g id="Group-5">
                            <mask id="mask-3" fill="white">
                                <use xlink:href="#path-2"></use>
                            </mask>
                            <g id="Clip-4"></g>
                            <path d="M109.749142,15.8952673 L109.749142,21.0493286 C109.749142,22.7055122 108.397687,24.0479816 106.730832,24.0479816 L22.8042284,24.0479816 L17.574045,29.2441041 C16.3952663,30.4152061 14.4841879,30.4152061 13.3055941,29.2441041 L8.07522576,24.0479816 L3.0182725,24.0479816 C1.35141728,24.0479816 -3.69754927e-05,22.7055122 -3.69754927e-05,21.0493286 L-3.69754927e-05,3.13473673 C-3.69754927e-05,1.47873673 1.35141728,0.136267347 3.0182725,0.136267347 L7.85762498,0.136267347 L12.0552678,4.30657347 C13.2340465,5.47767551 15.1451248,5.47767551 16.3239036,4.30657347 L20.5215464,0.136267347 L106.730832,0.136267347 C108.397687,0.136267347 109.749142,1.47873673 109.749142,3.13473673 L109.749142,7.76643061 C108.117228,7.11512449 106.791657,6.6159 105.772242,6.26875714 C104.399342,5.80112449 103.712707,6.54500204 103.712707,8.50002245 L103.712707,14.5296551 L103.712707,15.1616755 C103.712707,17.1166959 104.399342,17.8603898 105.772242,17.3929408 C106.791657,17.045798 108.117228,16.5465735 109.749142,15.8952673" id="Fill-3" fill="#FFC171" mask="url(#mask-3)"></path>
                        </g>
                        <g id="Group-8" transform="translate(103.531380, 0.000000)">
                            <mask id="mask-5" fill="white">
                                <use xlink:href="#path-4"></use>
                            </mask>
                            <g id="Clip-7"></g>
                            <path d="M35.1610129,21.0191143 C35.1610129,22.6672163 33.8162142,24.0032571 32.1573087,24.0032571 L9.22973006,24.0032571 C7.57100945,24.0032571 6.22621078,22.6672163 6.22621078,21.0191143 L6.22621078,16.1978694 C4.90581594,16.7060939 3.11342893,17.106502 2.23618536,17.3990939 C0.829637618,17.8680122 0.126363746,17.1219306 0.126363746,15.1606653 L0.126363746,14.540951 L0.126363746,8.49221633 C0.126363746,6.53095102 0.829637618,5.78486939 2.23618536,6.25397143 C3.11342893,6.54656327 4.90581594,6.94678776 6.22621078,7.45501224 L6.22621078,3.11480816 C6.22621078,1.46670612 7.57100945,0.130665306 9.22973006,0.130665306 L32.1573087,0.130665306 C33.8162142,0.130665306 35.1610129,1.46670612 35.1610129,3.11480816 L35.1610129,21.0191143 Z" id="Fill-6" fill="#F99191" mask="url(#mask-5)"></path>
                        </g>
                        <polygon id="Fill-9" fill="#FFFFFF" points="79.5881027 41.7352776 81.9181134 31.7256245 83.694416 31.7256245 81.687756 40.3492776 89.6800088 40.3492776 89.3572128 41.7352776"></polygon>
                        <polygon id="Fill-11" fill="#FFFFFF" points="93.4401946 41.7352776 95.7685413 31.7256245 97.5457684 31.7256245 95.2159426 41.7352776"></polygon>
                        <path d="M100.095432,41.7352776 L102.425258,31.7256245 L103.534523,31.7256245 L109.884879,38.4205224 C110.028343,38.5729714 110.177909,38.7549918 110.331173,38.9698898 C110.484066,39.1847878 110.637145,39.4217265 110.790408,39.6794204 C110.811854,39.3590939 110.850124,39.0231551 110.903553,38.6727061 C110.957722,38.3218898 111.058111,37.8371755 111.201391,37.2183796 L112.479449,31.7256245 L114.112841,31.7256245 L111.7832,41.7352776 L110.793736,41.7352776 L104.296033,34.7747878 C104.262755,34.7441143 104.214132,34.6936041 104.151828,34.6223388 C103.831251,34.2825429 103.610507,33.9567061 103.489597,33.6477673 C103.458723,33.9513796 103.413428,34.2737265 103.353343,34.6192163 C103.293812,34.9628694 103.209323,35.3680531 103.10117,35.8351347 L101.728824,41.7352776 L100.095432,41.7352776 Z" id="Fill-13" fill="#FFFFFF"></path>
                        <polygon id="Fill-15" fill="#FFFFFF" points="116.666868 41.7352776 118.996139 31.7256245 120.772442 31.7256245 119.774288 36.0145837 127.380702 31.7256245 129.967138 31.7256245 121.171407 36.5165633 128.47 41.7352776 125.514364 41.7352776 119.489577 37.2363796 118.443725 41.7352776"></polygon>
                        <mask id="mask-7" fill="white">
                            <use xlink:href="#path-6"></use>
                        </mask>
                        <g id="Clip-18"></g>
                        <polygon id="Fill-17" fill="#FBC600" mask="url(#mask-7)" points="63.8559364 39.3711429 73.3072421 39.3711429 73.3072421 32.3992653 63.8559364 32.3992653"></polygon>
                        <path d="M20.3866967,33.6170571 C20.3866967,33.6558122 20.3815202,33.7184449 20.3608139,33.8055061 L20.0822036,35.0028735 C20.0365388,35.2014245 19.9636971,35.3334857 19.8658969,35.3950163 C19.7965679,35.4381796 19.6122451,35.511649 19.1511607,35.511649 L14.1030815,35.511649 C14.2315713,34.9586082 14.4903998,33.846098 14.5778468,33.4717714 L19.7965679,33.4717714 C20.2654171,33.4717714 20.3754192,33.5489143 20.3815202,33.5522204 L20.3815202,33.5538735 C20.3815202,33.5538735 20.3866967,33.5762816 20.3866967,33.6170571 M21.9869961,37.4337918 C22.5114934,37.0723224 22.8688616,36.5001796 23.0459742,35.7353633 L23.5909929,33.3955469 C23.6525571,33.135649 23.6823224,32.894302 23.6823224,32.6744449 C23.6823224,32.2090163 23.5462526,31.8363429 23.2742979,31.5632204 C22.8928956,31.1784245 22.2428665,30.9919959 21.2883441,30.9919959 L11.9627551,30.9919959 L9.46321181,41.7352408 L12.6556758,41.7352408 C12.6556758,41.7352408 13.4201442,38.4491388 13.5327345,37.9633224 L15.4012911,37.9633224 C15.6070597,38.193649 18.7775233,41.7352408 18.7775233,41.7352408 L23.3931741,41.7352408 C23.3931741,41.7352408 20.3169979,38.8396286 19.3868794,37.9633224 L19.8368712,37.9633224 C20.7531239,37.9633224 21.4758099,37.7857102 21.9869961,37.4337918" id="Fill-19" fill="#FFFFFF" mask="url(#mask-7)"></path>
                        <path d="M29.7273533,39.1168653 C29.8987347,38.3788653 30.9172246,34.0056 31.0279662,33.5269469 L38.3788791,33.5269469 C38.2073128,34.2638449 37.1903019,38.6383959 37.0782661,39.1168653 L29.7273533,39.1168653 Z M41.3485658,31.6268449 C40.9865757,31.1998041 40.2490995,30.9920694 39.0913968,30.9920694 L31.3143414,30.9920694 C30.1917655,30.9920694 29.398826,31.1823551 28.8896735,31.5726612 C28.375899,31.9649878 28.0127997,32.647702 27.7780053,33.6553347 L27.7780053,33.6542327 L26.5531921,38.918498 C26.3098934,39.9637837 26.3699785,40.6804776 26.7373301,41.1093551 C27.1019084,41.5356612 27.8160901,41.7353143 28.9850703,41.7353143 L36.7621257,41.7353143 C37.8883992,41.7353143 38.6831874,41.5488857 39.192155,41.1635388 C39.7068539,40.7758041 40.0712474,40.0949265 40.3065964,39.0845388 L41.5315945,33.8197224 C41.7726747,32.7781102 41.7136988,32.061049 41.3485658,31.6268449 Z" id="Fill-20" fill="#FFFFFF" mask="url(#mask-7)"></path>
                        <path d="M54.4295152,37.8241531 L54.2529573,38.5829082 C54.2143179,38.7495 54.1381484,38.9688061 53.9952381,39.0659694 C53.9218417,39.1157449 53.723838,39.2002347 53.2161645,39.2002347 L48.0769407,39.2002347 C48.198775,38.6734592 48.4156362,37.7415 48.4997555,37.3811327 L53.8103606,37.3811327 C54.3296814,37.3811327 54.4448601,37.4687449 54.449482,37.4722347 C54.449482,37.4722347 54.4631629,37.5007041 54.4631629,37.5752755 C54.4631629,37.6290918 54.4561376,37.7095408 54.4295152,37.8241531 M54.9290542,34.9009898 C54.8549183,34.9421327 54.660797,35.0126633 54.1910233,35.0126633 L49.0508752,35.0126633 C49.1682724,34.5071939 49.3551835,33.7069286 49.4352354,33.3603367 L54.7456557,33.3603367 C55.2418668,33.3603367 55.3550118,33.4415204 55.3588943,33.4459286 C55.3588943,33.4459286 55.365365,33.4600714 55.365365,33.4973571 C55.365365,33.5269286 55.3611128,33.5704592 55.3478016,33.6312551 L55.1276125,34.5773571 C55.0719644,34.8192551 54.9643657,34.8807857 54.9290542,34.9009898 M58.1168963,31.5704388 C57.7393765,31.181602 57.0971122,30.992051 56.1557161,30.992051 L46.7946306,30.992051 L44.2954571,41.7352959 L53.166987,41.7352959 C54.2701509,41.7352959 55.1557139,41.5576837 55.7953899,41.2055816 C56.475739,40.8329082 56.9122347,40.2539694 57.0910112,39.4875 L57.3895883,38.2074796 C57.4365472,38.0028673 57.4602115,37.8076224 57.4602115,37.6263367 C57.4602115,37.2319898 57.3509489,36.8888878 57.1324238,36.5999694 C57.0281529,36.462398 56.8924528,36.3483367 56.744366,36.2462143 C56.9288737,36.1619082 57.1157848,36.0812755 57.2675692,35.9657449 C57.7162668,35.6285204 58.0104068,35.1722755 58.1405606,34.6093163 L58.4241626,33.3893571 C58.4849873,33.1305612 58.5147526,32.8917857 58.5147526,32.673949 C58.5147526,32.2123776 58.3816408,31.8439286 58.1168963,31.5704388" id="Fill-21" fill="#FFFFFF" mask="url(#mask-7)"></path>
                        <path d="M64.4000863,39.1168653 C64.5705433,38.3788653 65.5892181,34.0056 65.69959,33.5269469 L73.0510574,33.5269469 C72.8789365,34.2638449 71.8619256,38.6383959 71.7498898,39.1168653 L64.4000863,39.1168653 Z M76.0200046,31.6268449 C75.6596784,31.1998041 74.9207232,30.9920694 73.7630205,30.9920694 L65.9867047,30.9920694 C64.8635741,30.9920694 64.0717439,31.1823551 63.5612972,31.5726612 C63.0475228,31.9655388 62.6838688,32.647702 62.4492593,33.6542327 L61.2248158,38.918498 C60.9815171,39.9637837 61.0416023,40.6815796 61.4096933,41.1093551 C61.7739019,41.5356612 62.487344,41.7353143 63.656694,41.7353143 L71.4346738,41.7353143 C72.5594683,41.7353143 73.3546262,41.5488857 73.863409,41.1635388 C74.3782927,40.7758041 74.7425013,40.0949265 74.9785899,39.0845388 L76.2021089,33.8197224 C76.4459623,32.7781102 76.3862469,32.0616 76.0200046,31.6268449 Z" id="Fill-22" fill="#FFFFFF" mask="url(#mask-7)"></path>
                        <path d="M118.383307,12.4989245 L118.383307,16.9368429 L117.060694,16.9368429 L117.060694,12.4989245 L116.493675,12.4989245 L116.493675,11.2921898 L117.060694,11.2921898 L117.060694,9.33459796 C117.060694,8.46306735 117.290127,7.91333265 117.614032,7.56490408 C117.856776,7.31014898 118.275339,7.01516939 118.963638,7.01516939 C119.247055,7.01516939 119.530287,7.0552102 119.813704,7.17606735 L119.813704,8.47665918 C119.543783,8.31576122 119.368334,8.27535306 119.179575,8.27535306 C119.017622,8.27535306 118.774508,8.30216939 118.599244,8.48988367 C118.531764,8.55692449 118.383307,8.75804694 118.383307,9.16029184 L118.383307,11.2921898 L119.813704,11.2921898 L119.813704,12.4989245 L118.383307,12.4989245 Z" id="Fill-23" fill="#FFFFFF" mask="url(#mask-7)"></path>
                        <path d="M124.99593,14.1345735 C124.99593,12.8473898 124.145679,12.3246551 123.309109,12.3246551 C122.472353,12.3246551 121.622102,12.8473898 121.622102,14.1345735 C121.622102,15.2206347 122.269912,15.9312673 123.309109,15.9312673 C124.34812,15.9312673 124.99593,15.2206347 124.99593,14.1345735 M126.345721,14.1211653 C126.345721,15.8508184 125.022923,17.1111857 123.309109,17.1111857 C121.59511,17.1111857 120.272496,15.8508184 120.272496,14.1211653 C120.272496,12.3781041 121.59511,11.1447367 123.309109,11.1447367 C125.022923,11.1447367 126.345721,12.3781041 126.345721,14.1211653" id="Fill-24" fill="#FFFFFF" mask="url(#mask-7)"></path>
                        <path d="M127.722503,11.2921347 L129.044932,11.2921347 L129.044932,11.8016449 C129.193388,11.6273388 129.409325,11.4396245 129.59827,11.3323592 C129.854695,11.1848694 130.11112,11.1446449 130.408033,11.1446449 C130.731939,11.1446449 131.082836,11.1982776 131.447045,11.4128082 L130.907387,12.6061347 C130.610474,12.4184204 130.367545,12.4050122 130.232585,12.4050122 C129.949168,12.4050122 129.665935,12.4452367 129.409325,12.7134 C129.044932,13.1022367 129.044932,13.6385633 129.044932,14.0139918 L129.044932,16.9367878 L127.722503,16.9367878 L127.722503,11.2921347 Z" id="Fill-25" fill="#FFFFFF" mask="url(#mask-7)"></path>
                    </g>
                    <polygon id="Fill-27" fill="#FFFFFF" points="21 18 23.3087915 8 25.0689175 8 23.080532 16.6153366 31 16.6153366 30.6801436 18"></polygon>
                    <polygon id="Fill-28" fill="#FFFFFF" points="76 18 78.3087915 8 80.0689175 8 78.080532 16.6153366 86 16.6153366 85.6801436 18"></polygon>
                    <polygon id="Fill-29" fill="#FFFFFF" points="62 18 64.2766851 8 66.0128856 8 65.0372666 12.284823 72.4719562 8 75 8 66.402844 12.7863185 73.536662 18 70.647753 18 64.7589831 13.5054407 63.7367426 18"></polygon>
                    <g id="Group-38" transform="translate(7.000000, 8.000000)" fill="#FFFFFF">
                        <path d="M36.6785296,8.56182759 L26.8424732,8.56182759 L28.5513324,1.65734483 L38.3873887,1.65734483 L36.6785296,8.56182759 Z M39.0306141,0.279586207 L28.2254169,0.279586207 C27.4769099,0.279586207 26.8732338,0.847862069 26.6813465,1.56113793 L24.9023606,8.64837931 C24.7320789,9.30510345 25.5146423,9.93010345 26.2633324,9.93010345 L37.2516282,9.93010345 C38.0001352,9.93010345 38.4249239,9.3332069 38.6126,8.64837931 L40.2885014,1.83131034 C40.4629944,1.10406897 39.7791211,0.279586207 39.0306141,0.279586207 Z" id="Fill-30"></path>
                        <path d="M10.6057662,5.65915517 C10.7042732,5.65915517 10.8791324,5.66984483 10.9426676,5.74156897 C10.989907,5.79467241 11.1286958,6.03208621 10.939738,6.85812069 C10.6832169,7.98053448 10.4367662,8.66312069 9.13127324,8.66312069 L2.44817465,8.66312069 L2.44817465,8.66363793 L2.08435775,8.66363793 L2.84220282,5.65915517 L9.9039493,5.65915517 L10.6057662,5.65915517 Z M10.6314,1.4207069 C10.8121183,1.43191379 11.0127944,1.54639655 11.023231,1.5582931 C11.0790761,1.62139655 11.6291042,1.92708621 11.4352028,2.77501724 C11.1382169,4.07398276 10.6619775,4.48432759 9.53775211,4.48432759 L3.13845634,4.48432759 L3.91113239,1.4207069 L10.6314,1.4207069 Z M13.1859915,2.87208621 C13.3544423,2.1357069 13.1264845,1.3032931 12.6334,0.747086207 C12.3499634,0.426913793 11.4582732,0.152775862 10.9012873,0.152775862 L4.53861127,0.152775862 L4.53842817,0.154155172 L4.23137183,0.154155172 L4.23192113,0.151396552 L2.47197746,0.151396552 L2.31249859,0.783982759 L0.00490704225,9.93001724 L9.14848451,9.93001724 L9.14866761,9.92881034 L9.49747042,9.92881034 C11.9447662,9.92881034 12.3490479,8.0245 12.5605268,7.09915517 C12.7015127,6.48191379 12.8284,5.59312069 12.3038225,5.00087931 C12.2622592,4.95398276 12.2106254,4.90553448 12.1529493,4.85760345 C12.6423718,4.39432759 12.9891606,3.73346552 13.1859915,2.87208621 Z" id="Fill-32"></path>
                        <path d="M51.6273577,8.13962069 L51.5220761,8.56186207 L42.7846113,8.56186207 L44.5487662,1.61427586 L53.2864141,1.61427586 L53.182231,2.03203448 L55.1271042,2.03203448 L55.1875268,1.78824138 C55.3620197,1.06082759 54.6781465,0.236517241 53.9296394,0.236517241 L44.2230338,0.236517241 C43.4743437,0.236517241 42.8706676,0.804793103 42.6787803,1.51806897 L40.8444986,8.64841379 C40.6742169,9.30513793 41.4569634,9.92996552 42.2054704,9.92996552 L52.0951746,9.92996552 C52.8436817,9.92996552 53.2684704,9.33306897 53.4561465,8.64841379 L53.5823014,8.13962069 L51.6273577,8.13962069 Z" id="Fill-34"></path>
                        <polygon id="Fill-36" points="90.8306521 0.576982759 88.6353 0.576982759 84.8343563 4.09146552 81.1864831 0.562155172 78.9050746 0.562155172 83.7478493 5.37232759 82.4980183 9.93008621 84.406638 9.93008621 85.654638 5.37922414"></polygon>
                    </g>
                </g>
            </g>
        </g>
    </g>
</svg>